<svg width="24" height="22" viewBox="0 0 24 22" fill="none" xmlns="http://www.w3.org/2000/svg">
<g clip-path="url(#clip0)">
<path d="M23 6H3C2.73478 6 2.48043 5.89464 2.29289 5.70711C2.10536 5.51957 2 5.26522 2 5C2 4.73478 2.10536 4.48043 2.29289 4.29289C2.48043 4.10536 2.73478 4 3 4H4V2H3C2.20435 2 1.44129 2.31607 0.87868 2.87868C0.31607 3.44129 0 4.20435 0 5L0 18C0 19.0609 0.421427 20.0783 1.17157 20.8284C1.92172 21.5786 2.93913 22 4 22H23C23.2652 22 23.5196 21.8946 23.7071 21.7071C23.8946 21.5196 24 21.2652 24 21V7C24 6.73478 23.8946 6.48043 23.7071 6.29289C23.5196 6.10536 23.2652 6 23 6ZM18 16C17.6044 16 17.2178 15.8827 16.8889 15.6629C16.56 15.4432 16.3036 15.1308 16.1522 14.7654C16.0009 14.3999 15.9613 13.9978 16.0384 13.6098C16.1156 13.2219 16.3061 12.8655 16.5858 12.5858C16.8655 12.3061 17.2219 12.1156 17.6098 12.0384C17.9978 11.9613 18.3999 12.0009 18.7654 12.1522C19.1308 12.3036 19.4432 12.56 19.6629 12.8889C19.8827 13.2178 20 13.6044 20 14C20 14.5304 19.7893 15.0391 19.4142 15.4142C19.0391 15.7893 18.5304 16 18 16Z" fill="#00A9D8"/>
<path d="M11.0001 0C9.7605 0.00141637 8.55177 0.386737 7.54005 1.103C6.52833 1.81926 5.7633 2.8313 5.3501 4H16.6501C16.2369 2.8313 15.4719 1.81926 14.4601 1.103C13.4484 0.386737 12.2397 0.00141637 11.0001 0V0Z" fill="#5CE77D"/>
<path d="M18.59 3.67005L18.71 4.00005H22.65C22.184 2.62381 21.2258 1.46838 19.9595 0.755856C18.6932 0.0433345 17.2082 -0.175986 15.79 0.140052C17.0905 0.971991 18.076 2.21435 18.59 3.67005Z" fill="#5CE77D"/>
</g>
<defs>
<clipPath id="clip0">
<rect width="24" height="22" fill="white"/>
</clipPath>
</defs>
</svg>