<svg width="22" height="21" viewBox="0 0 22 21" fill="none" xmlns="http://www.w3.org/2000/svg">
<g clip-path="url(#clip0)">
<path d="M1 5.22949H21C21.2652 5.22949 21.5196 5.33485 21.7071 5.52239C21.8946 5.70992 22 5.96428 22 6.22949V8.22949H0V6.22949C0 5.96428 0.105357 5.70992 0.292893 5.52239C0.48043 5.33485 0.734784 5.22949 1 5.22949Z" fill="#00A9D8"/>
<path d="M12 3.22989H19.39C19.817 3.22989 20.2265 3.06027 20.5284 2.75833C20.8304 2.4564 21 2.04689 21 1.61989C21.001 1.35609 20.9371 1.09609 20.814 0.862763C20.691 0.629432 20.5124 0.429919 20.2942 0.281771C20.0759 0.133622 19.8246 0.0413777 19.5623 0.0131502C19.3 -0.0150773 19.0348 0.0215771 18.79 0.11989L12 3.22989Z" fill="#5CE77D"/>
<path d="M10 3.22989H2.61001C2.18301 3.22989 1.7735 3.06027 1.47157 2.75833C1.16964 2.4564 1.00001 2.04689 1.00001 1.61989C0.999031 1.35609 1.06289 1.09609 1.18596 0.862763C1.30904 0.629432 1.48756 0.429919 1.70584 0.281771C1.92411 0.133622 2.17544 0.0413777 2.43772 0.0131502C2.70001 -0.0150773 2.96521 0.0215771 3.21001 0.11989L10 3.22989Z" fill="#5CE77D"/>
<path d="M9 10.2295H1V19.2295C1 19.4947 1.10536 19.7491 1.29289 19.9366C1.48043 20.1241 1.73478 20.2295 2 20.2295H9V10.2295Z" fill="#00A9D8"/>
<path d="M13 10.2295V20.2295H20C20.2652 20.2295 20.5196 20.1241 20.7071 19.9366C20.8946 19.7491 21 19.4947 21 19.2295V10.2295H13Z" fill="#00A9D8"/>
</g>
<defs>
<clipPath id="clip0">
<rect width="22" height="20.23" fill="white"/>
</clipPath>
</defs>
</svg>