<svg width="24" height="24" viewBox="0 0 24 24" fill="none" xmlns="http://www.w3.org/2000/svg">
<path d="M8 7H23" stroke="#00A9D8" stroke-width="1.5" stroke-miterlimit="10" stroke-linecap="square"/>
<path d="M23 17.5V1H8V19.5" stroke="#00A9D8" stroke-width="1.5" stroke-miterlimit="10"/>
<path d="M4.5 23C6.433 23 8 21.433 8 19.5C8 17.567 6.433 16 4.5 16C2.567 16 1 17.567 1 19.5C1 21.433 2.567 23 4.5 23Z" stroke="#00A9D8" stroke-width="1.5" stroke-miterlimit="10" stroke-linecap="square"/>
<path d="M19.5 21C21.433 21 23 19.433 23 17.5C23 15.567 21.433 14 19.5 14C17.567 14 16 15.567 16 17.5C16 19.433 17.567 21 19.5 21Z" stroke="#00A9D8" stroke-width="1.5" stroke-miterlimit="10" stroke-linecap="square"/>
</svg>