<svg width="23" height="23" viewBox="0 0 23 23" fill="none" xmlns="http://www.w3.org/2000/svg">
<path d="M22.561 20.4383L17.328 15.2053C18.6406 13.3606 19.2121 11.09 18.9293 8.84371C18.6465 6.59739 17.5301 4.53933 15.8012 3.07749C14.0724 1.61564 11.8574 0.856747 9.59528 0.951231C7.3332 1.04571 5.1892 1.98668 3.58828 3.58761C1.98735 5.18853 1.04639 7.33253 0.951902 9.59461C0.857418 11.8567 1.61632 14.0717 3.07816 15.8005C4.54 17.5294 6.59807 18.6459 8.84438 18.9287C11.0907 19.2115 13.3613 18.6399 15.206 17.3273L20.439 22.5603C20.7204 22.8417 21.1021 22.9998 21.5 22.9998C21.898 22.9998 22.2796 22.8417 22.561 22.5603C22.8424 22.2789 23.0005 21.8973 23.0005 21.4993C23.0005 21.1014 22.8424 20.7197 22.561 20.4383ZM3.00001 9.99934C3.00001 8.61487 3.41055 7.26149 4.17972 6.11035C4.94889 4.9592 6.04214 4.06199 7.32123 3.53218C8.60031 3.00237 10.0078 2.86374 11.3656 3.13384C12.7235 3.40394 13.9708 4.07062 14.9498 5.04959C15.9287 6.02856 16.5954 7.27584 16.8655 8.63371C17.1356 9.99157 16.997 11.399 16.4672 12.6781C15.9374 13.9572 15.0401 15.0505 13.889 15.8196C12.7379 16.5888 11.3845 16.9993 10 16.9993C8.14414 16.9972 6.3649 16.259 5.0526 14.9467C3.7403 13.6345 3.00213 11.8552 3.00001 9.99934Z" fill="#00A9D8"/>
</svg>