<svg width="64" height="64" viewBox="0 0 64 64" fill="none" xmlns="http://www.w3.org/2000/svg">
<rect width="64" height="64" rx="32" fill="#D2AAEC"/>
<path d="M35.3971 45.5519V42.4806C35.3971 40.8514 34.7499 39.289 33.598 38.137C32.446 36.9851 30.8836 36.3379 29.2544 36.3379H20.0404C18.4113 36.3379 16.8488 36.9851 15.6969 38.137C14.5449 39.289 13.8977 40.8514 13.8977 42.4806V45.5519" stroke="#141414" stroke-width="4" stroke-linecap="square" stroke-linejoin="round"/>
<path d="M24.6478 29.6194C28.0403 29.6194 30.7905 26.8692 30.7905 23.4767C30.7905 20.0842 28.0403 17.334 24.6478 17.334C21.2553 17.334 18.5051 20.0842 18.5051 23.4767C18.5051 26.8692 21.2553 29.6194 24.6478 29.6194Z" stroke="#141414" stroke-width="4" stroke-linecap="round" stroke-linejoin="round"/>
<path d="M40.6118 31.0269C43.4389 31.0269 45.7307 28.7351 45.7307 25.908C45.7307 23.0809 43.4389 20.7891 40.6118 20.7891C37.7847 20.7891 35.4929 23.0809 35.4929 25.908C35.4929 28.7351 37.7847 31.0269 40.6118 31.0269Z" stroke="#141414" stroke-width="4" stroke-linecap="round" stroke-linejoin="round"/>
<path fill-rule="evenodd" clip-rule="evenodd" d="M39.1377 47.5709H49.6787C50.7833 47.5709 51.6787 46.6755 51.6787 45.5709V43.0115C51.6787 41.1234 50.9287 39.3127 49.5936 37.9777C48.2585 36.6426 46.4478 35.8926 44.5598 35.8926H36.8814C36.8309 35.8926 36.7803 35.8931 36.7299 35.8942C36.8486 36.0009 36.9647 36.111 37.0782 36.2245C38.114 37.2603 38.8729 38.5214 39.307 39.8926H44.5598C45.387 39.8926 46.1803 40.2212 46.7652 40.8061C47.3501 41.391 47.6787 42.1843 47.6787 43.0115V43.5709H39.7291V46.1566C39.7291 46.71 39.5028 47.2107 39.1377 47.5709Z" fill="#141414"/>
</svg>
