<svg width="64" height="64" viewBox="0 0 64 64" fill="none" xmlns="http://www.w3.org/2000/svg">
<rect width="64" height="64" rx="32" fill="#26BC57"/>
<path d="M15 19.6709V25.8982C15 28.4779 19.1816 30.5687 24.341 30.5687C29.5003 30.5687 33.6819 28.4779 33.6819 25.8982V19.6709" stroke="#141414" stroke-width="3.77931" stroke-miterlimit="10"/>
<path d="M15 25.8975V32.1248C15 34.7044 19.1816 36.7952 24.341 36.7952C26.7338 36.7952 28.9149 36.3437 30.5682 35.6043" stroke="#141414" stroke-width="3.77931" stroke-miterlimit="10"/>
<path d="M15 32.125V38.3523C15 40.932 19.1816 43.0228 24.341 43.0228C26.7338 43.0228 28.9165 42.5728 30.5682 41.8334" stroke="#141414" stroke-width="3.77931" stroke-miterlimit="10"/>
<path d="M24.3409 24.3409C29.4998 24.3409 33.6819 22.2499 33.6819 19.6705C33.6819 17.091 29.4998 15 24.3409 15C19.1821 15 15 17.091 15 19.6705C15 22.2499 19.1821 24.3409 24.3409 24.3409Z" stroke="#141414" stroke-width="3.77931" stroke-miterlimit="10" stroke-linecap="square"/>
<path d="M30.5689 32.125V38.3523C30.5689 40.932 34.7505 43.0228 39.9099 43.0228C45.0692 43.0228 49.2508 40.932 49.2508 38.3523V32.125" stroke="#141414" stroke-width="3.77931" stroke-miterlimit="10"/>
<path d="M30.5689 38.3525V44.5798C30.5689 47.1595 34.7505 49.2503 39.9099 49.2503C45.0692 49.2503 49.2508 47.1595 49.2508 44.5798V38.3525" stroke="#141414" stroke-width="3.77931" stroke-miterlimit="10"/>
<path d="M39.9099 36.795C45.0687 36.795 49.2508 34.704 49.2508 32.1246C49.2508 29.5451 45.0687 27.4541 39.9099 27.4541C34.751 27.4541 30.5689 29.5451 30.5689 32.1246C30.5689 34.704 34.751 36.795 39.9099 36.795Z" stroke="#141414" stroke-width="3.77931" stroke-miterlimit="10" stroke-linecap="square"/>
</svg>
