<svg width="24" height="18" viewBox="0 0 24 18" fill="none" xmlns="http://www.w3.org/2000/svg">
<path d="M9 9C6.61305 9 4.32387 9.94821 2.63604 11.636C0.948212 13.3239 0 15.6131 0 18H18C18 15.6131 17.0518 13.3239 15.364 11.636C13.6761 9.94821 11.3869 9 9 9Z" fill="#00A9D8"/>
<path d="M9 8C11.2091 8 13 6.20914 13 4C13 1.79086 11.2091 0 9 0C6.79086 0 5 1.79086 5 4C5 6.20914 6.79086 8 9 8Z" fill="#00A9D8"/>
<path d="M18 7C19.1046 7 20 6.10457 20 5C20 3.89543 19.1046 3 18 3C16.8954 3 16 3.89543 16 5C16 6.10457 16.8954 7 18 7Z" fill="#5CE77D"/>
<path d="M19.67 14.5003H24C23.9997 13.6028 23.7798 12.719 23.3594 11.926C22.9391 11.133 22.331 10.4549 21.5884 9.95094C20.8457 9.44696 19.991 9.13238 19.0988 9.03465C18.2067 8.93693 17.3041 9.05903 16.47 9.39029C18.037 10.7238 19.1544 12.5083 19.67 14.5003Z" fill="#5CE77D"/>
</svg>