<svg width="127" height="36" viewBox="0 0 127 36" fill="none" xmlns="http://www.w3.org/2000/svg">
<path d="M49.7649 17.3785C48.9325 16.8934 48.0143 16.4934 47.0274 16.187C46.0663 15.8891 45.1652 15.5657 44.3413 15.2253C43.5346 14.8934 42.8567 14.4849 42.3161 14.0168C41.8012 13.5657 41.5437 12.953 41.5437 12.1615C41.5437 11.2423 41.8698 10.5104 42.5392 9.94019C43.2086 9.36998 44.0753 9.08062 45.1051 9.08062C45.8088 9.08062 46.3838 9.15722 46.8215 9.3019C47.2591 9.44658 47.6367 9.6253 47.9456 9.81254C48.2631 10.0083 48.5464 10.187 48.7867 10.3402C49.0527 10.5104 49.3788 10.5955 49.7392 10.5955C50.1597 10.5955 50.5115 10.4508 50.7776 10.1615C51.035 9.88062 51.1724 9.54019 51.1724 9.14019C51.1724 8.72317 50.9922 8.32318 50.6317 7.95723C50.2885 7.60829 49.8336 7.3019 49.2672 7.04658C48.718 6.79977 48.083 6.60403 47.3793 6.45935C46.6756 6.31467 45.9461 6.24658 45.2081 6.24658C44.1097 6.24658 43.1056 6.43382 42.2303 6.80829C41.3549 7.18276 40.5997 7.65935 39.9904 8.24658C39.3811 8.8253 38.9092 9.48913 38.583 10.1955C38.2569 10.9104 38.0853 11.6253 38.0853 12.3147C38.0853 13.5913 38.3771 14.6295 38.9435 15.3955C39.5099 16.1529 40.2221 16.7742 41.0631 17.2508C41.8956 17.7189 42.8138 18.1019 43.7921 18.4083C44.7533 18.7061 45.6543 19.0295 46.4782 19.37C47.2849 19.7019 47.9628 20.1274 48.4949 20.6295C49.0098 21.1061 49.2672 21.787 49.2672 22.6295C49.2672 23.2508 49.1557 23.838 48.9497 24.3742C48.7351 24.9104 48.4262 25.387 48.0229 25.7955C47.6195 26.204 47.1304 26.5359 46.5555 26.7742C45.9805 27.0125 45.3282 27.1317 44.5988 27.1317C43.8693 27.1317 43.2343 27.038 42.7023 26.8593C42.1616 26.6806 41.681 26.4763 41.252 26.2465C40.8229 26.0168 40.4538 25.8125 40.1535 25.6253C39.8188 25.421 39.5099 25.3189 39.2353 25.3189C38.7547 25.3189 38.3943 25.4976 38.1626 25.838C37.948 26.1614 37.8364 26.5444 37.8364 26.97C37.8364 27.438 38.051 27.8551 38.4715 28.2295C38.8663 28.5785 39.3983 28.8848 40.0419 29.1487C40.677 29.404 41.4064 29.6083 42.1959 29.7529C42.9855 29.8976 43.7836 29.9657 44.5645 29.9657C45.8603 29.9657 47.0274 29.7614 48.0401 29.3614C49.0527 28.9614 49.9109 28.4082 50.5974 27.7274C51.2839 27.0465 51.816 26.2465 52.1764 25.3529C52.5369 24.4593 52.7171 23.5146 52.7171 22.5529C52.7171 21.2338 52.4253 20.1529 51.8589 19.3444C51.3183 18.5274 50.606 17.8721 49.7649 17.3785Z" fill="#002030"/>
<path d="M76.3682 12.1528C76.0249 12.1528 75.6989 12.2465 75.3899 12.4337C75.0638 12.6294 74.7978 13.0464 74.5832 13.7188L70.9704 24.9698L67.4261 14.1358C67.2201 13.506 67.0142 13.0209 66.7911 12.6975C66.5508 12.3401 66.1303 12.1528 65.5381 12.1528C64.946 12.1528 64.5255 12.3316 64.2852 12.6975C64.0621 13.0209 63.8561 13.4975 63.6502 14.1358L60.1059 24.9698L56.4931 13.7188C56.2786 13.055 56.0211 12.6294 55.6864 12.4337C55.3774 12.2465 55.0428 12.1528 54.7081 12.1528C54.1417 12.1528 53.7383 12.3145 53.4981 12.6379C53.2664 12.9443 53.1462 13.2592 53.1462 13.5741C53.1462 13.7358 53.172 13.923 53.2149 14.1103C53.2578 14.289 53.3179 14.4933 53.3865 14.7145L58.218 28.3656C58.4325 28.9528 58.6642 29.3613 58.9474 29.5911C59.2306 29.8294 59.6083 29.9571 60.0717 29.9571C60.5093 29.9571 60.8783 29.8379 61.1701 29.5996C61.4619 29.3613 61.7021 28.9613 61.8909 28.3656L65.5381 17.2422L69.1768 28.3656C69.3656 28.9613 69.5973 29.3613 69.8977 29.5996C70.1895 29.8379 70.567 29.9571 70.9961 29.9571C71.4595 29.9571 71.8285 29.8379 72.1203 29.5996C72.4035 29.3613 72.6352 28.9613 72.8497 28.3741L77.6812 14.723C77.7498 14.5103 77.8013 14.306 77.8528 14.1188C77.8957 13.923 77.9215 13.7443 77.9215 13.5826C77.9215 13.2677 77.8013 12.9528 77.5696 12.6465C77.3379 12.3145 76.926 12.1528 76.3682 12.1528Z" fill="#002030"/>
<path d="M93.9434 12.5018C93.6088 12.272 93.2741 12.1528 92.948 12.1528C92.6047 12.1528 92.2615 12.272 91.9354 12.5188C91.5921 12.7741 91.4205 13.1826 91.4205 13.7358V14.2975C90.794 13.6592 90.1332 13.1486 89.4552 12.7826C88.6829 12.3656 87.7647 12.1528 86.7263 12.1528C85.4734 12.1528 84.332 12.3996 83.3537 12.8933C82.3754 13.3869 81.543 14.0507 80.865 14.8762C80.1957 15.7018 79.6721 16.6635 79.3289 17.7273C78.9856 18.7911 78.8054 19.906 78.8054 21.0549C78.8054 22.2039 78.977 23.3188 79.3289 24.3826C79.6721 25.4464 80.1957 26.4081 80.865 27.2337C81.543 28.0592 82.3754 28.7315 83.3537 29.2166C84.332 29.7102 85.4648 29.9571 86.7263 29.9571C87.696 29.9571 88.6142 29.7443 89.4381 29.3102C90.1589 28.9358 90.8283 28.3741 91.4205 27.6337V28.3996C91.4205 28.9443 91.5921 29.3528 91.9354 29.5996C92.2615 29.8379 92.6047 29.9571 92.948 29.9571C93.2655 29.9571 93.6002 29.8379 93.9434 29.6081C94.2953 29.3613 94.4842 28.9613 94.4842 28.4081V13.7103C94.4756 13.1571 94.2953 12.7486 93.9434 12.5018ZM86.7263 27.123C85.8767 27.123 85.1558 26.9358 84.5637 26.5783C83.9716 26.2124 83.4824 25.7358 83.1134 25.1486C82.7358 24.5613 82.4698 23.906 82.3067 23.1996C82.1437 22.4847 82.0665 21.7613 82.0665 21.0549C82.0665 20.3486 82.1523 19.6337 82.3067 18.9103C82.4698 18.2039 82.7358 17.5401 83.1134 16.9613C83.4824 16.3826 83.9716 15.8975 84.5637 15.5316C85.1472 15.1656 85.8767 14.9869 86.7263 14.9869C87.593 14.9869 88.3225 15.1741 88.8974 15.5316C89.481 15.8975 89.9616 16.3741 90.3306 16.9613C90.7082 17.5486 90.9742 18.2039 91.1373 18.9103C91.3004 19.6252 91.3776 20.3486 91.3776 21.0549C91.3776 21.7613 91.2918 22.4847 91.1373 23.1996C90.9742 23.906 90.7082 24.5613 90.3306 25.1486C89.9616 25.7273 89.4724 26.2124 88.8974 26.5783C88.3225 26.9358 87.593 27.123 86.7263 27.123Z" fill="#002030"/>
<path d="M107.709 20.8933C107.013 20.4933 106.241 20.1444 105.417 19.855C104.611 19.5742 103.847 19.2848 103.16 18.9954C102.482 18.7146 101.907 18.3997 101.461 18.0763C101.041 17.7699 100.835 17.4039 100.835 16.9699C100.835 16.3061 101.101 15.821 101.659 15.5061C102.233 15.1742 102.937 15.004 103.744 15.004C104.422 15.004 104.98 15.0891 105.4 15.2678C105.829 15.4465 106.198 15.6422 106.49 15.855C106.79 16.0678 107.074 16.272 107.331 16.4593C107.614 16.6635 107.932 16.7742 108.275 16.7742C108.764 16.7742 109.142 16.638 109.399 16.3571C109.648 16.0848 109.777 15.7699 109.777 15.421C109.777 14.9188 109.562 14.4593 109.142 14.0508C108.747 13.6678 108.241 13.3359 107.657 13.055C107.074 12.7742 106.421 12.5614 105.718 12.3997C105.014 12.2465 104.345 12.1699 103.744 12.1699C103.006 12.1699 102.259 12.272 101.53 12.4763C100.8 12.6806 100.131 12.9955 99.556 13.4125C98.9725 13.8295 98.5005 14.3571 98.1315 14.9699C97.7625 15.5912 97.5822 16.3146 97.5822 17.1316C97.5822 17.9571 97.8311 18.6635 98.3202 19.2422C98.7922 19.7954 99.393 20.2891 100.105 20.6891C100.809 21.0891 101.573 21.4465 102.397 21.7529C103.212 22.0593 103.967 22.3742 104.654 22.689C105.332 23.0039 105.906 23.3444 106.353 23.7188C106.782 24.0678 106.988 24.4933 106.988 24.9954C106.988 25.5231 106.713 25.9997 106.138 26.4422C105.563 26.8933 104.756 27.1231 103.744 27.1231C102.971 27.1231 102.319 27.021 101.787 26.8082C101.247 26.5954 100.766 26.3486 100.363 26.0848C99.9508 25.8125 99.5818 25.5656 99.2728 25.3529C98.9381 25.1146 98.5777 24.9954 98.2173 24.9954C97.8655 24.9954 97.5393 25.1316 97.2647 25.4039C96.9901 25.6763 96.8528 26.0337 96.8528 26.4763C96.8528 26.8848 97.0416 27.3103 97.4106 27.7358C97.7624 28.1444 98.2516 28.5188 98.8695 28.8422C99.4788 29.1656 100.191 29.438 101.006 29.6422C101.822 29.855 102.705 29.9571 103.649 29.9571C104.482 29.9571 105.297 29.8465 106.078 29.6337C106.868 29.4124 107.58 29.0805 108.189 28.6295C108.798 28.1784 109.305 27.6167 109.674 26.9444C110.051 26.272 110.24 25.4635 110.24 24.5444C110.24 23.6763 109.991 22.9444 109.502 22.3571C109.022 21.7869 108.421 21.2933 107.709 20.8933Z" fill="#002030"/>
<path d="M126.382 15.702C125.987 14.8595 125.481 14.1701 124.863 13.6424C124.254 13.1148 123.567 12.7318 122.829 12.502C122.1 12.2722 121.37 12.1531 120.675 12.1531C119.774 12.1531 118.873 12.3318 117.998 12.6893C117.217 13.0042 116.522 13.5233 115.921 14.2212V6.01693C115.921 5.48076 115.775 5.05523 115.475 4.74885C115.174 4.43395 114.78 4.28076 114.291 4.28076C113.801 4.28076 113.407 4.43396 113.106 4.74034C112.815 5.04672 112.66 5.46374 112.66 5.98289V28.2637C112.66 28.7829 112.806 29.1999 113.106 29.5063C113.407 29.8126 113.801 29.9658 114.291 29.9658C114.78 29.9658 115.174 29.8126 115.475 29.5148C115.775 29.2169 115.921 28.8084 115.921 28.2892V19.0126C115.921 18.2978 116.041 17.668 116.273 17.1658C116.505 16.6552 116.805 16.2382 117.174 15.9318C117.543 15.6169 117.964 15.3786 118.427 15.2254C119.354 14.919 120.298 14.919 121.233 15.2254C121.696 15.3786 122.117 15.6169 122.486 15.9318C122.855 16.2467 123.155 16.6637 123.387 17.1658C123.619 17.6765 123.739 18.2978 123.739 19.0126V28.2892C123.739 28.7999 123.893 29.2169 124.185 29.5148C124.486 29.8126 124.88 29.9658 125.369 29.9658C125.859 29.9658 126.253 29.8126 126.554 29.5148C126.854 29.2169 127 28.7999 127 28.2892V18.8169C126.974 17.5914 126.777 16.5446 126.382 15.702Z" fill="#002030"/>
<path d="M19.0942 32.3826H1.2958C0.583517 32.3826 0.00854492 31.8124 0.00854492 31.106C0.00854492 30.3996 0.583517 29.8294 1.2958 29.8294H19.0942C22.0291 29.8294 24.4148 27.4635 24.4148 24.5528C24.4148 21.6422 22.0291 19.2762 19.0942 19.2762H7.90368C3.55277 19.2762 0.00854492 15.7614 0.00854492 11.4465C0.00854492 7.13159 3.55277 3.6167 7.90368 3.6167H25.7021C26.4143 3.6167 26.9893 4.18691 26.9893 4.89329C26.9893 5.59967 26.4143 6.16989 25.7021 6.16989H7.90368C4.96875 6.16989 2.58305 8.53584 2.58305 11.4465C2.58305 14.3571 4.96875 16.7231 7.90368 16.7231H19.0942C23.4451 16.7231 26.9893 20.2379 26.9893 24.5528C26.9893 28.8677 23.4451 32.3826 19.0942 32.3826Z" fill="#3CE35F"/>
<path d="M22.2094 8.23805C24.1489 8.23805 25.7193 6.6806 25.7193 4.7572C25.7193 2.8338 24.1489 1.27637 22.2094 1.27637C20.2699 1.27637 18.6995 2.8338 18.6995 4.7572C18.6995 6.6806 20.2699 8.23805 22.2094 8.23805Z" fill="white"/>
<path d="M22.7972 9.51487C20.154 9.51487 18 7.3787 18 4.75743C18 2.13616 20.154 0 22.7972 0C25.4403 0 27.5943 2.13616 27.5943 4.75743C27.5943 7.3787 25.4403 9.51487 22.7972 9.51487ZM22.7972 2.5617C21.57 2.5617 20.5745 3.54893 20.5745 4.76595C20.5745 5.98297 21.57 6.97019 22.7972 6.97019C24.0244 6.97019 25.0198 5.98297 25.0198 4.76595C25.0198 3.54893 24.0158 2.5617 22.7972 2.5617Z" fill="#3CE35F"/>
<path d="M13.499 21.4812C15.4384 21.4812 17.0088 19.9238 17.0088 18.0004C17.0088 16.077 15.4384 14.5195 13.499 14.5195C11.5595 14.5195 9.98901 16.077 9.98901 18.0004C9.98901 19.9238 11.5595 21.4812 13.499 21.4812Z" fill="white"/>
<path d="M13.4991 22.7575C10.8559 22.7575 8.7019 20.6214 8.7019 18.0001C8.7019 15.3788 10.8559 13.2427 13.4991 13.2427C16.1422 13.2427 18.2962 15.3788 18.2962 18.0001C18.2962 20.6214 16.1422 22.7575 13.4991 22.7575ZM13.4991 15.8044C12.2719 15.8044 11.2764 16.7916 11.2764 18.0086C11.2764 19.2256 12.2719 20.2129 13.4991 20.2129C14.7263 20.2129 15.7217 19.2256 15.7217 18.0086C15.7217 16.7916 14.7177 15.8044 13.4991 15.8044Z" fill="#3CE35F"/>
<path d="M4.797 34.7234C6.73646 34.7234 8.30694 33.166 8.30694 31.2426C8.30694 29.3192 6.73646 27.7617 4.797 27.7617C2.85755 27.7617 1.28711 29.3192 1.28711 31.2426C1.29569 33.166 2.86613 34.7234 4.797 34.7234Z" fill="white"/>
<path d="M4.79715 36.0002C2.15399 36.0002 0 33.8641 0 31.2428C0 28.6215 2.15399 26.4854 4.79715 26.4854C7.4403 26.4854 9.59433 28.6215 9.59433 31.2428C9.59433 33.8641 7.4403 36.0002 4.79715 36.0002ZM4.79715 29.047C3.56997 29.047 2.5745 30.0343 2.5745 31.2513C2.5745 32.4683 3.56997 33.4556 4.79715 33.4556C6.02432 33.4556 7.01983 32.4683 7.01983 31.2513C7.01983 30.0343 6.02432 29.047 4.79715 29.047Z" fill="#3CE35F"/>
</svg>