<svg width="24" height="24" viewBox="0 0 24 24" fill="none" xmlns="http://www.w3.org/2000/svg">
<path d="M9 14H19" stroke="#00A9D8" stroke-width="1.5" stroke-miterlimit="10" stroke-linecap="square"/>
<path d="M9 18H19" stroke="#00A9D8" stroke-width="1.5" stroke-miterlimit="10" stroke-linecap="square"/>
<path d="M19 6H9V10H19V6Z" stroke="#00A9D8" stroke-width="1.5" stroke-miterlimit="10" stroke-linecap="square"/>
<path d="M3 23C2.47005 22.9984 1.96227 22.7872 1.58753 22.4125C1.2128 22.0377 1.00158 21.5299 1 21V13H2" stroke="#00A9D8" stroke-width="1.5" stroke-miterlimit="10" stroke-linecap="square"/>
<path d="M5 1V21C4.99842 21.5299 4.7872 22.0377 4.41247 22.4125C4.03773 22.7872 3.52995 22.9984 3 23H21C21.5299 22.9984 22.0377 22.7872 22.4125 22.4125C22.7872 22.0377 22.9984 21.5299 23 21V1H5Z" stroke="#00A9D8" stroke-width="1.5" stroke-miterlimit="10" stroke-linecap="square"/>
</svg>