<svg width="24" height="23" viewBox="0 0 24 23" fill="none" xmlns="http://www.w3.org/2000/svg">
<path d="M16.667 15.0004H23V11.0604C23 10.3754 22.641 9.74036 22.053 9.38836L19.228 7.69336" stroke="#00A9D8" stroke-width="1.5" stroke-miterlimit="10"/>
<path d="M13.248 3.199C13.764 1.908 15.025 1 16.5 1C18.433 1 20 2.567 20 4.5V5.5C20 7.433 18.433 9 16.5 9C15.953 9 15.461 8.88 15 8.656" stroke="#00A9D8" stroke-width="1.5" stroke-miterlimit="10"/>
<path d="M6.858 12.8906L2.311 15.6146C1.498 16.1016 1 16.9806 1 17.9296V22.0006H19V17.9296C19 16.9816 18.502 16.1026 17.689 15.6146L13.142 12.8906" stroke="#00A9D8" stroke-width="1.5" stroke-miterlimit="10"/>
<path d="M10 14C7.239 14 5 11.761 5 9V7C5 4.239 7.239 2 10 2C12.761 2 15 4.239 15 7V9C15 11.761 12.761 14 10 14Z" stroke="#00A9D8" stroke-width="1.5" stroke-miterlimit="10" stroke-linecap="square"/>
</svg>