<svg width="24" height="24" viewBox="0 0 24 24" fill="none" xmlns="http://www.w3.org/2000/svg">
<path d="M2 4.7959V8.52317C2 10.0672 4.50286 11.3186 7.59091 11.3186C10.679 11.3186 13.1818 10.0672 13.1818 8.52317V4.7959" stroke="#7C7C7C" stroke-width="1.86364" stroke-miterlimit="10"/>
<path d="M2 8.52246V12.2497C2 13.7938 4.50286 15.0452 7.59091 15.0452C9.02311 15.0452 10.3286 14.775 11.3182 14.3323" stroke="#7C7C7C" stroke-width="1.86364" stroke-miterlimit="10"/>
<path d="M2 12.25V15.9773C2 17.5213 4.50286 18.7727 7.59091 18.7727C9.02311 18.7727 10.3295 18.5034 11.3182 18.0608" stroke="#7C7C7C" stroke-width="1.86364" stroke-miterlimit="10"/>
<path d="M7.59091 7.59091C10.6787 7.59091 13.1818 6.33934 13.1818 4.79545C13.1818 3.25157 10.6787 2 7.59091 2C4.50314 2 2 3.25157 2 4.79545C2 6.33934 4.50314 7.59091 7.59091 7.59091Z" stroke="#7C7C7C" stroke-width="1.86364" stroke-miterlimit="10" stroke-linecap="square"/>
<path d="M11.3181 12.25V15.9773C11.3181 17.5213 13.821 18.7727 16.909 18.7727C19.9971 18.7727 22.4999 17.5213 22.4999 15.9773V12.25" stroke="#7C7C7C" stroke-width="1.86364" stroke-miterlimit="10"/>
<path d="M11.3184 15.9775V19.7048C11.3184 21.2488 13.8212 22.5003 16.9093 22.5003C19.9973 22.5003 22.5002 21.2488 22.5002 19.7048V15.9775" stroke="#7C7C7C" stroke-width="1.86364" stroke-miterlimit="10"/>
<path d="M16.9093 15.045C19.997 15.045 22.5002 13.7934 22.5002 12.2496C22.5002 10.7057 19.997 9.4541 16.9093 9.4541C13.8215 9.4541 11.3184 10.7057 11.3184 12.2496C11.3184 13.7934 13.8215 15.045 16.9093 15.045Z" stroke="#7C7C7C" stroke-width="1.86364" stroke-miterlimit="10" stroke-linecap="square"/>
</svg>
