<svg width="24" height="24" viewBox="0 0 24 24" fill="none" xmlns="http://www.w3.org/2000/svg">
<g clip-path="url(#clip0_3678_30803)">
<path d="M8.77024 14.4663L6.58634 12.6311C5.86033 12.0555 5.27383 11.3231 4.87065 10.4889C4.46747 9.65468 4.25806 8.74023 4.25806 7.8137C4.25806 6.88717 4.46747 5.97261 4.87065 5.1384C5.27383 4.3042 5.86033 3.57192 6.58634 2.99628C8.17482 1.70496 10.1595 1 12.2067 1C14.2538 1 16.2385 1.70496 17.827 2.99628C18.553 3.57192 19.1395 4.3042 19.5427 5.1384C19.9459 5.97261 20.1553 6.88717 20.1553 7.8137C20.1553 8.74023 19.9459 9.65468 19.5427 10.4889C19.1395 11.3231 18.553 12.0555 17.827 12.6311L12.2113 17.4485" stroke="#141414" stroke-width="1.5" stroke-miterlimit="10" stroke-linecap="square"/>
<path d="M8.45898 6.47382C9.51723 5.61 10.8413 5.13818 12.2074 5.13818C13.5734 5.13818 14.8975 5.61 15.9557 6.47382" stroke="#141414" stroke-width="1.5" stroke-miterlimit="10" stroke-linecap="square"/>
<path d="M12.0178 11.4659C9.08146 8.95166 7.25534 8.38271 7.68661 2.60181" stroke="#141414" stroke-width="1.5" stroke-miterlimit="10" stroke-linecap="square"/>
<path d="M12.4485 17.6136L18.7341 23L21.4318 19.5314L15.7977 14.7048" stroke="#141414" stroke-width="1.5" stroke-miterlimit="10" stroke-linecap="square"/>
<path d="M16.2411 13.9614L5.69781 22.9998L3 19.5404L12.0567 11.7683C14.9931 9.26327 17.177 8.38237 16.7457 2.59229" stroke="#141414" stroke-width="1.5" stroke-miterlimit="10" stroke-linecap="square"/>
</g>
<defs>
<clipPath id="clip0_3678_30803">
<rect width="24" height="24" fill="white"/>
</clipPath>
</defs>
</svg>
