<svg width="24" height="24" viewBox="0 0 24 24" fill="none" xmlns="http://www.w3.org/2000/svg">
<g clip-path="url(#clip0_3333_30736)">
<g clip-path="url(#clip1_3333_30736)">
<path d="M17.8209 1.52761C17.2464 0.960276 16.4698 0.641916 15.6604 0.641916C14.8511 0.641916 14.0745 0.960276 13.5 1.52761C13.3588 1.67415 13.2314 1.83317 13.1194 2.00282C13.0071 1.83132 12.877 1.6721 12.7313 1.52761C12.4476 1.24576 12.1109 1.02226 11.7404 0.869912C11.3699 0.717564 10.9728 0.639305 10.5719 0.63965C9.76231 0.640346 8.98612 0.961125 8.41412 1.53133C7.84212 2.10153 7.52121 2.87442 7.52191 3.68011C7.52261 4.4858 7.84487 5.25822 8.41785 5.82744L13.1194 10.5061L17.8209 5.82744C18.105 5.54531 18.3303 5.21022 18.4841 4.8413C18.6379 4.47238 18.717 4.07688 18.717 3.67748C18.717 3.27808 18.6379 2.88266 18.4841 2.51375C18.3303 2.14483 18.105 1.80974 17.8209 1.52761Z" stroke="#6B7883" stroke-width="1.5" stroke-miterlimit="10" stroke-linecap="square"/>
<path d="M22.2239 16.3877L17.5523 20.1009C16.9664 20.5625 16.2398 20.8114 15.4926 20.8065H14.2538H9.77616L5.93286 15.6897L7.54483 14.4272C8.30578 13.8349 9.24289 13.511 10.209 13.5063H17.6717C17.6717 14.0519 17.4539 14.5751 17.0662 14.9609C16.6786 15.3467 16.1527 15.5634 15.6045 15.5634H14.0075C13.6506 15.5634 13.3081 15.704 13.055 15.9545C12.8019 16.2049 12.6587 16.545 12.6567 16.9002V17.1824H16.2463L17.9926 15.853C18.3066 15.6194 18.6638 15.4496 19.0439 15.3533C19.4239 15.2571 19.8193 15.2364 20.2073 15.2922C20.5954 15.3481 20.9687 15.4794 21.3057 15.6789C21.6427 15.8783 21.9892 16.0751 22.2239 16.3877Z" stroke="#6B7883" stroke-width="1.5" stroke-miterlimit="10" stroke-linecap="square"/>
<path d="M4.26124 17.0935L2.78363 18.2669L6.71647 23.2129L8.19408 22.0469L4.26124 17.0935Z" stroke="#6B7883" stroke-width="1.5" stroke-miterlimit="10" stroke-linecap="square"/>
</g>
</g>
<defs>
<clipPath id="clip0_3333_30736">
<rect width="24" height="24" fill="white"/>
</clipPath>
<clipPath id="clip1_3333_30736">
<rect width="21" height="25" fill="white" transform="translate(2 -1)"/>
</clipPath>
</defs>
</svg>
