<svg width="24" height="24" viewBox="0 0 24 24" fill="none" xmlns="http://www.w3.org/2000/svg">
<path d="M1.5 4.5V8.5C1.5 10.157 4.186 11.5 7.5 11.5C10.814 11.5 13.5 10.157 13.5 8.5V4.5" stroke="#141414" stroke-width="1.5" stroke-miterlimit="10"/>
<path d="M1.5 8.5V12.5C1.5 14.157 4.186 15.5 7.5 15.5C9.037 15.5 10.438 15.21 11.5 14.735" stroke="#141414" stroke-width="1.5" stroke-miterlimit="10"/>
<path d="M1.5 12.5V16.5C1.5 18.157 4.186 19.5 7.5 19.5C9.037 19.5 10.439 19.211 11.5 18.736" stroke="#141414" stroke-width="1.5" stroke-miterlimit="10"/>
<path d="M7.5 7.5C10.8137 7.5 13.5 6.15685 13.5 4.5C13.5 2.84315 10.8137 1.5 7.5 1.5C4.18629 1.5 1.5 2.84315 1.5 4.5C1.5 6.15685 4.18629 7.5 7.5 7.5Z" stroke="#141414" stroke-width="1.5" stroke-miterlimit="10" stroke-linecap="square"/>
<path d="M11.5 12.5V16.5C11.5 18.157 14.186 19.5 17.5 19.5C20.814 19.5 23.5 18.157 23.5 16.5V12.5" stroke="#141414" stroke-width="1.5" stroke-miterlimit="10"/>
<path d="M11.5 16.5V20.5C11.5 22.157 14.186 23.5 17.5 23.5C20.814 23.5 23.5 22.157 23.5 20.5V16.5" stroke="#141414" stroke-width="1.5" stroke-miterlimit="10"/>
<path d="M17.5 15.5C20.8137 15.5 23.5 14.1569 23.5 12.5C23.5 10.8431 20.8137 9.5 17.5 9.5C14.1863 9.5 11.5 10.8431 11.5 12.5C11.5 14.1569 14.1863 15.5 17.5 15.5Z" stroke="#141414" stroke-width="1.5" stroke-miterlimit="10" stroke-linecap="square"/>
</svg>
