<svg width="26" height="24" viewBox="0 0 26 24" fill="none" xmlns="http://www.w3.org/2000/svg">
<path d="M15.7273 10.7275H20.6364" stroke="#141414" stroke-width="1.5" stroke-miterlimit="10" stroke-linecap="square"/>
<path d="M15.7273 15.0909H20.6364" stroke="#141414" stroke-width="1.5" stroke-miterlimit="10" stroke-linecap="square"/>
<path d="M12.4544 17.273H4.81799C4.81799 15.4653 6.28308 14.0002 8.09072 14.0002H9.18163C10.9893 14.0002 12.4544 15.4653 12.4544 17.273Z" stroke="#141414" stroke-width="1.5" stroke-miterlimit="10" stroke-linecap="square"/>
<path d="M8.63629 12.3634C9.84127 12.3634 10.8181 11.3866 10.8181 10.1816C10.8181 8.97659 9.84127 7.99976 8.63629 7.99976C7.4313 7.99976 6.45447 8.97659 6.45447 10.1816C6.45447 11.3866 7.4313 12.3634 8.63629 12.3634Z" stroke="#141414" stroke-width="1.5" stroke-miterlimit="10" stroke-linecap="square"/>
<path d="M20.6364 2C20.6364 3.20491 19.6595 4.18182 18.4545 4.18182C17.2496 4.18182 16.2727 3.20491 16.2727 2H9.72727C9.72727 3.20491 8.75036 4.18182 7.54545 4.18182C6.34055 4.18182 5.36364 3.20491 5.36364 2H1V21.6364H25V2H20.6364Z" stroke="#141414" stroke-width="1.5" stroke-miterlimit="10" stroke-linecap="square"/>
</svg>
