<svg width="24" height="24" viewBox="0 0 24 24" fill="none" xmlns="http://www.w3.org/2000/svg">
<path d="M12.5 15.5C14.1569 15.5 15.5 14.1569 15.5 12.5C15.5 10.8431 14.1569 9.5 12.5 9.5C10.8431 9.5 9.5 10.8431 9.5 12.5C9.5 14.1569 10.8431 15.5 12.5 15.5Z" stroke="black" stroke-width="1.5" stroke-miterlimit="10" stroke-linecap="square"/>
<path d="M20.5001 12.5C20.4989 11.9239 20.4359 11.3496 20.3121 10.787L23.0261 8.732L21.0261 5.268L17.8831 6.594C17.032 5.8137 16.0218 5.22723 14.9221 4.875L14.5001 1.5H10.5001L10.0781 4.875C8.97847 5.22723 7.96826 5.8137 7.11712 6.594L3.97412 5.268L1.97412 8.732L4.68812 10.787C4.43751 11.9153 4.43751 13.0847 4.68812 14.213L1.97412 16.268L3.97412 19.732L7.11712 18.406C7.96826 19.1863 8.97847 19.7728 10.0781 20.125L10.5001 23.5H14.5001L14.9221 20.125C16.0218 19.7728 17.032 19.1863 17.8831 18.406L21.0261 19.732L23.0261 16.268L20.3121 14.213C20.4359 13.6504 20.4989 13.0761 20.5001 12.5V12.5Z" stroke="black" stroke-width="1.5" stroke-miterlimit="10" stroke-linecap="square"/>
</svg>
