<svg width="24" height="24" viewBox="0 0 24 24" fill="none" xmlns="http://www.w3.org/2000/svg">
<path d="M6.5 3.5H3.5C2.395 3.5 1.5 4.395 1.5 5.5C1.5 6.605 2.395 7.5 3.5 7.5" stroke="black" stroke-width="1.5" stroke-miterlimit="10" stroke-linecap="square"/>
<path d="M6.5 7.5V1.5H20.5V7.5" stroke="black" stroke-width="1.5" stroke-miterlimit="10" stroke-linecap="square"/>
<path d="M23.5 7.5H3.5C2.395 7.5 1.5 6.605 1.5 5.5V20.5C1.5 22.157 2.843 23.5 4.5 23.5H23.5V7.5Z" stroke="black" stroke-width="1.5" stroke-miterlimit="10" stroke-linecap="square"/>
<path d="M17.5 17.5C18.6046 17.5 19.5 16.6046 19.5 15.5C19.5 14.3954 18.6046 13.5 17.5 13.5C16.3954 13.5 15.5 14.3954 15.5 15.5C15.5 16.6046 16.3954 17.5 17.5 17.5Z" stroke="black" stroke-width="1.5" stroke-miterlimit="10" stroke-linecap="square"/>
</svg>
