<svg xmlns="http://www.w3.org/2000/svg" width="18" height="18" viewBox="0 0 18 18" fill="none">
    <g clip-path="url(#clip0_78_245746)">
        <path d="M5.29492 0.632812L0 4.08998L3.66119 7.02183L8.99992 3.72522L5.29492 0.632812Z" fill="#141414"/>
        <path d="M0 9.95547L5.29492 13.4126L8.99992 10.32L3.66119 7.02344L0 9.95547Z" fill="#141414"/>
        <path d="M9 10.32L12.7052 13.4126L18.0001 9.95547L14.3389 7.02344L9 10.32Z" fill="#141414"/>
        <path d="M18.0001 4.08998L12.7052 0.632812L9 3.72522L14.3389 7.02183L18.0001 4.08998Z" fill="#141414"/>
        <path d="M9.01112 10.9844L5.29518 14.0678L3.70508 13.0297V14.1936L9.01112 17.3754L14.3172 14.1936V13.0297L12.7271 14.0678L9.01112 10.9844Z" fill="#141414"/>
    </g>
    <defs>
        <clipPath id="clip0_78_245746">
            <rect width="18" height="18" fill="white"/>
        </clipPath>
    </defs>
</svg>