<svg xmlns="http://www.w3.org/2000/svg" width="19" height="16" viewBox="0 0 19 16" fill="none">
    <g clip-path="url(#clip0_78_245753)">
        <path d="M1.43643 13.7121L2.27434 15.0762C2.44845 15.3634 2.69874 15.589 2.99255 15.7531L5.98511 10.8711H0C0 11.189 0.0870561 11.507 0.261168 11.7942L1.43643 13.7121Z" fill="#141414"/>
        <path d="M9.5 5.12814L6.50745 0.246094C6.21363 0.410196 5.96334 0.635837 5.78923 0.923017L0.261168 9.94866C0.0902583 10.2296 0.000227557 10.5478 0 10.8717H5.98511L9.5 5.12814Z" fill="#141414"/>
        <path d="M16.0081 15.7531C16.3019 15.589 16.5522 15.3634 16.7263 15.0762L17.0746 14.5121L18.7395 11.7942C18.9136 11.507 19.0007 11.189 19.0007 10.8711H13.0151L14.2888 13.2301L16.0081 15.7531Z" fill="#141414"/>
        <path d="M9.50085 5.13211L12.4934 0.25006C12.1996 0.0859575 11.8623 0.00390625 11.514 0.00390625H7.48768C7.13946 0.00390625 6.80212 0.096214 6.5083 0.25006L9.50085 5.13211Z" fill="#141414"/>
        <path d="M13.0155 10.8711H5.98572L2.99316 15.7531C3.28698 15.9172 3.62432 15.9993 3.97255 15.9993H15.0287C15.3769 15.9993 15.7142 15.907 16.0081 15.7531L13.0155 10.8711Z" fill="#141414"/>
        <path d="M15.9753 5.43584L13.2113 0.923017C13.0371 0.635837 12.7869 0.410196 12.493 0.246094L9.50049 5.12814L13.0154 10.8717H18.9896C18.9896 10.5538 18.9025 10.2358 18.7284 9.94866L15.9753 5.43584Z" fill="#141414"/>
    </g>
    <defs>
        <clipPath id="clip0_78_245753">
            <rect width="19" height="16" fill="white"/>
        </clipPath>
    </defs>
</svg>