<svg width="16" height="15" viewBox="0 0 16 15" fill="none" xmlns="http://www.w3.org/2000/svg">
<path d="M15.7989 12.5263L9.48188 0.880306C9.32608 0.591371 9.0885 0.354828 8.79888 0.200306C8.4054 -0.0102628 7.9447 -0.0569536 7.51697 0.0703896C7.08925 0.197733 6.72911 0.488809 6.51488 0.880306L0.198877 12.5263C0.0607697 12.7826 -0.00828351 13.0704 -0.00149706 13.3614C0.0052894 13.6525 0.087682 13.9368 0.237584 14.1863C0.387487 14.4359 0.599741 14.6422 0.853491 14.7849C1.10724 14.9276 1.39375 15.0018 1.68488 15.0003H14.3129C14.5919 15.0003 14.8667 14.9316 15.1129 14.8003C15.3079 14.6968 15.4806 14.5556 15.6208 14.3851C15.7611 14.2145 15.8662 14.0178 15.93 13.8064C15.9939 13.595 16.0153 13.373 15.9929 13.1533C15.9706 12.9336 15.905 12.7205 15.7999 12.5263H15.7989ZM7.99888 13.0003C7.8011 13.0003 7.60776 12.9417 7.44331 12.8318C7.27886 12.7219 7.15069 12.5657 7.075 12.383C6.99931 12.2003 6.97951 11.9992 7.01809 11.8052C7.05668 11.6112 7.15192 11.4331 7.29177 11.2932C7.43162 11.1533 7.60981 11.0581 7.80379 11.0195C7.99777 10.9809 8.19884 11.0007 8.38156 11.0764C8.56429 11.1521 8.72047 11.2803 8.83035 11.4447C8.94023 11.6092 8.99888 11.8025 8.99888 12.0003C8.99888 12.2655 8.89352 12.5199 8.70598 12.7074C8.51845 12.8949 8.26409 13.0003 7.99888 13.0003ZM8.99888 9.50031C8.99888 9.63291 8.9462 9.76009 8.85243 9.85386C8.75866 9.94763 8.63149 10.0003 8.49888 10.0003H7.49888C7.36627 10.0003 7.23909 9.94763 7.14532 9.85386C7.05156 9.76009 6.99888 9.63291 6.99888 9.50031V5.50031C6.99888 5.3677 7.05156 5.24052 7.14532 5.14675C7.23909 5.05298 7.36627 5.00031 7.49888 5.00031H8.49888C8.63149 5.00031 8.75866 5.05298 8.85243 5.14675C8.9462 5.24052 8.99888 5.3677 8.99888 5.50031V9.50031Z" fill="#FF7979"/>
</svg>
