<svg width="24" height="24" viewBox="0 0 24 24" fill="none" xmlns="http://www.w3.org/2000/svg">
<path d="M12 3L12.7071 3.70711L12 2V3ZM10.136 7.5L9.13604 7.5L10.136 7.5ZM16.5 13.864L16.5 14.864L16.5 13.864ZM21 12L22 12L20.2929 11.2929L21 12ZM11.2929 2.29289C9.91188 3.6739 9.13604 5.54696 9.13604 7.5L11.136 7.5C11.136 6.07739 11.7012 4.71304 12.7071 3.70711L11.2929 2.29289ZM9.13604 7.5C9.13604 9.45304 9.91188 11.3261 11.2929 12.7071L12.7071 11.2929C11.7012 10.287 11.136 8.92261 11.136 7.5L9.13604 7.5ZM11.2929 12.7071C12.6739 14.0881 14.547 14.864 16.5 14.864L16.5 12.864C15.0774 12.864 13.713 12.2988 12.7071 11.2929L11.2929 12.7071ZM16.5 14.864C18.453 14.864 20.3261 14.0881 21.7071 12.7071L20.2929 11.2929C19.287 12.2988 17.9226 12.864 16.5 12.864L16.5 14.864ZM20 12C20 13.5823 19.5308 15.129 18.6518 16.4446L20.3147 17.5557C21.4135 15.9112 22 13.9778 22 12L20 12ZM18.6518 16.4446C17.7727 17.7602 16.5233 18.7855 15.0615 19.391L15.8268 21.2388C17.6541 20.4819 19.2159 19.2002 20.3147 17.5557L18.6518 16.4446ZM15.0615 19.391C13.5997 19.9965 11.9911 20.155 10.4393 19.8463L10.0491 21.8079C11.9889 22.1937 13.9996 21.9957 15.8268 21.2388L15.0615 19.391ZM10.4393 19.8463C8.88743 19.5376 7.46197 18.7757 6.34315 17.6569L4.92893 19.0711C6.32746 20.4696 8.10929 21.422 10.0491 21.8079L10.4393 19.8463ZM6.34315 17.6569C5.22433 16.538 4.4624 15.1126 4.15372 13.5607L2.19215 13.9509C2.578 15.8907 3.53041 17.6725 4.92893 19.0711L6.34315 17.6569ZM4.15372 13.5607C3.84504 12.0089 4.00346 10.4003 4.60896 8.93853L2.7612 8.17317C2.00433 10.0004 1.8063 12.0111 2.19215 13.9509L4.15372 13.5607ZM4.60896 8.93853C5.21446 7.47672 6.23985 6.22729 7.55544 5.34824L6.4443 3.6853C4.79981 4.78412 3.51808 6.3459 2.7612 8.17317L4.60896 8.93853ZM7.55544 5.34824C8.87103 4.46919 10.4177 4 12 4V2C10.0222 2 8.08879 2.58649 6.4443 3.6853L7.55544 5.34824Z" fill="#BEBEBE"/>
</svg>
