<svg xmlns="http://www.w3.org/2000/svg" width="99" height="16" viewBox="0 0 99 16" fill="none">
  <path d="M52.1288 5.57688C52.4967 5.8912 52.798 6.30187 53.033 6.80379C53.2681 7.30571 53.3855 7.92932 53.4009 8.65936V14.3021C53.4009 14.6064 53.3141 14.8548 53.1352 15.0322C52.9564 15.2096 52.7214 15.301 52.4303 15.301C52.139 15.301 51.904 15.2096 51.7252 15.0322C51.5514 14.8548 51.4595 14.6064 51.4595 14.3021V8.77597C51.4595 8.3501 51.388 7.98 51.2501 7.67581C51.1121 7.37668 50.9333 7.12825 50.7136 6.94067C50.494 6.75309 50.2436 6.61113 49.9677 6.51987C49.4108 6.33735 48.8489 6.33735 48.2972 6.51987C48.0212 6.61113 47.7709 6.75309 47.5512 6.94067C47.3315 7.12319 47.1528 7.37162 47.0148 7.67581C46.8768 7.97492 46.8054 8.3501 46.8054 8.77597V14.3021C46.8054 14.6115 46.7184 14.8548 46.5397 15.0322C46.3609 15.2096 46.1258 15.301 45.8346 15.301C45.5435 15.301 45.3084 15.2097 45.1297 15.0271C44.9508 14.8446 44.8639 14.5962 44.8639 14.2869V1.01398C44.8639 0.704722 44.9559 0.456296 45.1297 0.273777C45.3084 0.0912593 45.5435 0 45.8346 0C46.1258 0 46.3609 0.0912592 46.5397 0.278856C46.7184 0.46136 46.8054 0.714865 46.8054 1.03427V5.92163C47.1629 5.50589 47.5767 5.19663 48.0417 5.00905C48.5628 4.79612 49.0992 4.68964 49.6356 4.68964C50.0495 4.68964 50.4837 4.76063 50.9181 4.89751C51.3574 5.03439 51.7661 5.26254 52.1288 5.57688Z" fill="#141414"/>
  <path d="M7.42101 7.80268C6.92535 7.51369 6.3788 7.27541 5.79119 7.09289C5.21898 6.91544 4.68255 6.72279 4.19217 6.51998C3.7119 6.32226 3.30833 6.07891 2.98645 5.80007C2.67996 5.53137 2.52657 5.16633 2.52657 4.69483C2.52657 4.14729 2.72073 3.71128 3.11931 3.37159C3.51774 3.03191 4.03379 2.85953 4.64677 2.85953C5.06573 2.85953 5.40801 2.90517 5.66859 2.99135C5.92918 3.07755 6.15399 3.18401 6.33788 3.29554C6.52691 3.41215 6.69555 3.51862 6.83853 3.60988C6.99691 3.71128 7.19107 3.76198 7.40561 3.76198C7.65593 3.76198 7.86534 3.67579 8.02372 3.50341C8.17711 3.3361 8.25879 3.13331 8.25879 2.89503C8.25879 2.6466 8.15159 2.40832 7.93691 2.19032C7.73263 1.98245 7.46178 1.79993 7.12464 1.64784C6.79762 1.5008 6.41957 1.38421 6.00074 1.29801C5.58178 1.21182 5.14756 1.17126 4.70821 1.17126C4.05417 1.17126 3.45645 1.28281 2.93541 1.50588C2.41424 1.72896 1.96462 2.01287 1.60197 2.36269C1.23917 2.70744 0.958195 3.1029 0.764036 3.5237C0.56988 3.94956 0.46781 4.37543 0.46781 4.78609C0.46781 5.54658 0.641439 6.16509 0.978722 6.62139C1.31586 7.0726 1.73981 7.4427 2.24046 7.72662C2.73612 8.00547 3.28282 8.23361 3.86515 8.41612C4.43736 8.59356 4.97379 8.78623 5.46432 8.98903C5.94444 9.18676 6.34814 9.44023 6.6649 9.73936C6.97139 10.0233 7.12464 10.4289 7.12464 10.9308C7.12464 11.3009 7.0582 11.6508 6.93561 11.9701C6.80788 12.2895 6.62399 12.5734 6.38379 12.8167C6.14372 13.0602 5.85249 13.2578 5.51022 13.3998C5.16795 13.5417 4.77963 13.6127 4.34541 13.6127C3.91119 13.6127 3.53314 13.557 3.21639 13.4505C2.8945 13.3441 2.60839 13.2223 2.35294 13.0855C2.09748 12.9486 1.87781 12.8269 1.69905 12.7154C1.49976 12.5938 1.31586 12.5328 1.15235 12.5328C0.866247 12.5328 0.651707 12.6393 0.513714 12.8422C0.385986 13.0347 0.319555 13.2629 0.319555 13.5164C0.319555 13.7952 0.447281 14.0436 0.697605 14.2667C0.932676 14.4747 1.24943 14.6572 1.63262 14.8144C2.01067 14.9664 2.44489 15.0881 2.91489 15.1742C3.38489 15.2605 3.86002 15.301 4.32503 15.301C5.09638 15.301 5.79119 15.1793 6.39405 14.9411C6.99691 14.7027 7.50782 14.3733 7.91652 13.9677C8.32522 13.5621 8.64198 13.0855 8.85652 12.5532C9.07121 12.0208 9.17841 11.4581 9.17841 10.8852C9.17841 10.0993 9.00478 9.45546 8.6675 8.97381C8.34561 8.4871 7.92165 8.09672 7.42101 7.80268Z" fill="#141414"/>
  <path d="M23.2581 4.6896C23.0537 4.6896 22.8595 4.74538 22.6756 4.85691C22.4815 4.97352 22.3231 5.22194 22.1954 5.62246L20.0445 12.3248L17.9346 5.87089C17.812 5.49572 17.6894 5.20674 17.5565 5.01407C17.4135 4.80114 17.1631 4.6896 16.8105 4.6896C16.4581 4.6896 16.2078 4.79606 16.0647 5.01407C15.9318 5.20674 15.8092 5.49064 15.6866 5.87089L13.5767 12.3248L11.4259 5.62246C11.2981 5.22701 11.1449 4.97352 10.9456 4.85691C10.7617 4.74538 10.5624 4.6896 10.3633 4.6896C10.026 4.6896 9.78591 4.78593 9.64279 4.97858C9.50494 5.1611 9.43338 5.3487 9.43338 5.53628C9.43338 5.6326 9.44863 5.74413 9.47429 5.85568C9.49981 5.96215 9.53559 6.08382 9.57636 6.21564L12.4527 14.3477C12.5804 14.6976 12.7184 14.9409 12.887 15.0778C13.0555 15.2197 13.2803 15.2958 13.5563 15.2958C13.8168 15.2958 14.0364 15.2248 14.2102 15.0828C14.3838 14.9409 14.527 14.7027 14.6393 14.3477L16.8105 7.72139L18.9768 14.3477C19.0891 14.7027 19.2271 14.9409 19.406 15.0828C19.5796 15.2248 19.8044 15.2958 20.0599 15.2958C20.3357 15.2958 20.5554 15.2248 20.7292 15.0828C20.8977 14.9409 21.0357 14.7027 21.1634 14.3528L24.0397 6.22071C24.0704 6.12534 24.0953 6.03283 24.1189 5.94536L24.1198 5.94208C24.1273 5.91444 24.1346 5.8873 24.1419 5.86074C24.1674 5.74413 24.1827 5.63767 24.1827 5.54134C24.1827 5.35376 24.1113 5.16618 23.9733 4.98366C23.8353 4.78593 23.5901 4.6896 23.2581 4.6896Z" fill="#141414"/>
  <path fill-rule="evenodd" clip-rule="evenodd" d="M33.128 4.6896C33.3222 4.6896 33.5215 4.76058 33.7206 4.89746C33.9302 5.04449 34.0375 5.28785 34.0427 5.61739V14.3731C34.0427 14.7027 33.9302 14.9409 33.7206 15.0879C33.5164 15.2248 33.3171 15.2958 33.128 15.2958C32.9238 15.2958 32.7193 15.2248 32.5252 15.0828C32.3209 14.9358 32.2187 14.6925 32.2187 14.368V13.9117C31.8662 14.3528 31.4677 14.6874 31.0385 14.9105C30.5481 15.1691 30.0014 15.2958 29.4242 15.2958C28.6731 15.2958 27.9988 15.1487 27.4163 14.8548C26.834 14.5657 26.3384 14.1653 25.9348 13.6734C25.5364 13.1816 25.2246 12.6087 25.0203 11.9751C24.8108 11.3413 24.7087 10.6771 24.7087 9.9927C24.7087 9.30826 24.8159 8.64411 25.0203 8.01038C25.2246 7.37664 25.5364 6.80373 25.9348 6.31196C26.3384 5.82018 26.834 5.42473 27.4163 5.13068C27.9988 4.83664 28.6782 4.6896 29.4242 4.6896C30.0423 4.6896 30.589 4.81635 31.0488 5.06478C31.4523 5.28277 31.8458 5.58698 32.2187 5.96721V5.6326C32.2187 5.30306 32.3209 5.05971 32.5252 4.90761C32.7193 4.76058 32.9238 4.6896 33.128 4.6896ZM28.1367 13.2831C28.4892 13.496 28.9184 13.6075 29.4242 13.6075C29.9401 13.6075 30.3743 13.496 30.7167 13.2831C31.059 13.0651 31.3503 12.7761 31.5699 12.4313C31.7947 12.0815 31.9531 11.6912 32.0502 11.2703C32.1421 10.8444 32.1932 10.4135 32.1932 9.9927C32.1932 9.5719 32.1473 9.14095 32.0502 8.71508C31.9531 8.29428 31.7947 7.90391 31.5699 7.55408C31.3503 7.20427 31.0642 6.92034 30.7167 6.70235C30.3743 6.48941 29.9401 6.37787 29.4242 6.37787C28.9184 6.37787 28.4841 6.48433 28.1367 6.70235C27.7841 6.92034 27.493 7.20933 27.2734 7.55408C27.0486 7.89883 26.8902 8.29428 26.7931 8.71508C26.7012 9.14603 26.65 9.5719 26.65 9.9927C26.65 10.4135 26.696 10.8444 26.7931 11.2703C26.8902 11.6912 27.0486 12.0815 27.2734 12.4313C27.493 12.7812 27.7841 13.0651 28.1367 13.2831Z" fill="#141414"/>
  <path d="M41.9158 9.89649C41.5019 9.65821 41.0422 9.45034 40.5517 9.27796C40.0716 9.11067 39.6168 8.93829 39.2081 8.76592C38.8045 8.59861 38.4623 8.41102 38.1966 8.21836C37.9462 8.03584 37.8236 7.81785 37.8236 7.55928C37.8236 7.16382 37.982 6.87484 38.314 6.68726C38.6563 6.48953 39.0753 6.38814 39.5555 6.38814C39.9591 6.38814 40.2911 6.43883 40.5416 6.5453C40.7969 6.65176 41.0167 6.76837 41.1903 6.89513C41.3691 7.02188 41.5377 7.14355 41.691 7.25508C41.8596 7.37676 42.0486 7.44268 42.2529 7.44268C42.5442 7.44268 42.769 7.36155 42.9222 7.19425C43.0705 7.03201 43.147 6.84442 43.147 6.63656C43.147 6.33744 43.0193 6.06366 42.769 5.82032C42.534 5.59216 42.2325 5.39444 41.8851 5.22714C41.5377 5.05983 41.1494 4.93308 40.7306 4.83675C40.3116 4.74549 39.9132 4.69987 39.5555 4.69987C39.1162 4.69987 38.6717 4.76072 38.2375 4.88239C37.8031 5.00406 37.4047 5.19165 37.0624 5.44007C36.715 5.6885 36.434 6.00282 36.2143 6.36786C35.9947 6.73796 35.8873 7.1689 35.8873 7.65561C35.8873 8.14739 36.0354 8.56819 36.3267 8.91294C36.6077 9.24248 36.9653 9.53653 37.3894 9.77482C37.8082 10.0131 38.263 10.226 38.7534 10.4086C39.2388 10.5911 39.6884 10.7787 40.0971 10.9662C40.5006 11.1538 40.8429 11.3566 41.1086 11.5797C41.3641 11.7876 41.4867 12.0411 41.4867 12.3401C41.4867 12.6545 41.3232 12.9384 40.9809 13.2021C40.6386 13.4707 40.1584 13.6076 39.5555 13.6076C39.0956 13.6076 38.7075 13.5468 38.3907 13.4201C38.0688 13.2933 37.7827 13.1463 37.5427 12.9892C37.2973 12.8269 37.0777 12.6799 36.8938 12.5532C36.6945 12.4111 36.4799 12.3401 36.2654 12.3401C36.056 12.3401 35.8618 12.4213 35.6983 12.5836C35.5348 12.7458 35.4531 12.9587 35.4531 13.2223C35.4531 13.4658 35.5654 13.7191 35.7851 13.9726C35.9947 14.2161 36.2858 14.439 36.6537 14.6317C37.0164 14.8244 37.4405 14.9866 37.9258 15.1083C38.4111 15.2351 38.9374 15.2959 39.4994 15.2959C39.9949 15.2959 40.4803 15.23 40.9451 15.1032C41.4151 14.9715 41.8392 14.7737 42.2019 14.505C42.5647 14.2363 42.866 13.9017 43.0857 13.5011C43.3105 13.1006 43.423 12.6191 43.423 12.0715C43.423 11.5543 43.2747 11.1183 42.9837 10.7685C42.6975 10.4288 42.3399 10.1348 41.9158 9.89649Z" fill="#141414"/>
  <path d="M61.3201 9.13372H66.6985V10.6127H61.3201V13.7333H66.9349V15.301H59.4583V4.7412H66.9349V6.27933H61.3201V9.13372Z" fill="#26BC57"/>
  <path d="M75.5069 12.6093H70.9559L69.9954 15.301H67.9859L72.0493 4.7412H74.443L78.5064 15.301H76.4821L75.5069 12.6093ZM74.9602 11.1007L73.2609 6.38285H73.2018L71.5026 11.1007H74.9602Z" fill="#26BC57"/>
  <path d="M86.512 15.301L84.0739 11.2634H81.6359V15.301H79.7741V4.7412H84.7684C87.1621 4.7412 88.492 6.0279 88.492 8.00971C88.492 9.5922 87.6497 10.731 86.0835 11.1155L88.6841 15.301H86.512ZM81.6359 9.7401H84.5172C85.8766 9.7401 86.6006 9.10414 86.6006 8.00971C86.6006 6.91528 85.8766 6.27933 84.5172 6.27933H81.6359V9.7401Z" fill="#26BC57"/>
  <path d="M99 15.301H96.9757L91.8927 7.32939H91.8336V15.301H90.1196V4.7412H92.2178L97.2269 12.6093H97.286V4.7412H99V15.301Z" fill="#26BC57"/>
</svg>