<svg width="127" height="36" viewBox="0 0 127 36" fill="none" xmlns="http://www.w3.org/2000/svg">
<path d="M49.7649 17.378C48.9325 16.8929 48.0143 16.4929 47.0274 16.1865C46.0663 15.8886 45.1652 15.5652 44.3413 15.2248C43.5346 14.8929 42.8567 14.4844 42.3161 14.0163C41.8012 13.5652 41.5437 12.9525 41.5437 12.161C41.5437 11.2418 41.8698 10.5099 42.5392 9.93971C43.2086 9.36949 44.0753 9.08014 45.1051 9.08014C45.8088 9.08014 46.3838 9.15673 46.8215 9.30141C47.2591 9.44609 47.6367 9.62481 47.9456 9.81205C48.2631 10.0078 48.5464 10.1865 48.7867 10.3397C49.0527 10.5099 49.3788 10.595 49.7392 10.595C50.1597 10.595 50.5115 10.4503 50.7776 10.161C51.035 9.88013 51.1724 9.53971 51.1724 9.13971C51.1724 8.72269 50.9922 8.32269 50.6317 7.95674C50.2885 7.6078 49.8336 7.30141 49.2672 7.04609C48.718 6.79929 48.083 6.60354 47.3793 6.45886C46.6756 6.31418 45.9461 6.24609 45.2081 6.24609C44.1097 6.24609 43.1056 6.43334 42.2303 6.8078C41.3549 7.18227 40.5997 7.65886 39.9904 8.24609C39.3811 8.82481 38.9092 9.48864 38.583 10.195C38.2569 10.9099 38.0853 11.6248 38.0853 12.3142C38.0853 13.5908 38.3771 14.6291 38.9435 15.395C39.5099 16.1525 40.2221 16.7737 41.0631 17.2503C41.8956 17.7184 42.8138 18.1014 43.7921 18.4078C44.7533 18.7056 45.6543 19.0291 46.4782 19.3695C47.2849 19.7014 47.9628 20.1269 48.4949 20.629C49.0098 21.1056 49.2672 21.7865 49.2672 22.629C49.2672 23.2503 49.1557 23.8376 48.9497 24.3737C48.7351 24.9099 48.4262 25.3865 48.0229 25.795C47.6195 26.2035 47.1304 26.5354 46.5555 26.7737C45.9805 27.012 45.3282 27.1312 44.5988 27.1312C43.8693 27.1312 43.2343 27.0376 42.7023 26.8588C42.1616 26.6801 41.681 26.4758 41.252 26.2461C40.8229 26.0163 40.4538 25.812 40.1535 25.6248C39.8188 25.4205 39.5099 25.3184 39.2353 25.3184C38.7547 25.3184 38.3943 25.4971 38.1626 25.8376C37.948 26.161 37.8364 26.5439 37.8364 26.9695C37.8364 27.4375 38.051 27.8546 38.4715 28.229C38.8663 28.578 39.3983 28.8844 40.0419 29.1482C40.677 29.4035 41.4064 29.6078 42.1959 29.7524C42.9855 29.8971 43.7836 29.9652 44.5645 29.9652C45.8603 29.9652 47.0274 29.761 48.0401 29.361C49.0527 28.961 49.9109 28.4078 50.5974 27.7269C51.2839 27.0461 51.816 26.2461 52.1764 25.3524C52.5369 24.4588 52.7171 23.5142 52.7171 22.5525C52.7171 21.2333 52.4253 20.1525 51.8589 19.3439C51.3183 18.5269 50.606 17.8716 49.7649 17.378Z" fill="#002030"/>
<path d="M76.3685 12.1523C76.0252 12.1523 75.6991 12.246 75.3902 12.4332C75.0641 12.6289 74.798 13.046 74.5835 13.7183L70.9706 24.9693L67.4263 14.1353C67.2204 13.5055 67.0145 13.0204 66.7913 12.697C66.5511 12.3396 66.1305 12.1523 65.5384 12.1523C64.9462 12.1523 64.5258 12.3311 64.2855 12.697C64.0624 13.0204 63.8564 13.497 63.6504 14.1353L60.1062 24.9693L56.4933 13.7183C56.2788 13.0545 56.0213 12.6289 55.6866 12.4332C55.3777 12.246 55.0431 12.1523 54.7084 12.1523C54.142 12.1523 53.7386 12.3141 53.4983 12.6375C53.2666 12.9438 53.1465 13.2587 53.1465 13.5736C53.1465 13.7353 53.1722 13.9226 53.2151 14.1098C53.258 14.2885 53.3181 14.4928 53.3868 14.714L58.2182 28.3651C58.4328 28.9523 58.6645 29.3608 58.9477 29.5906C59.2309 29.8289 59.6085 29.9566 60.0719 29.9566C60.5096 29.9566 60.8786 29.8374 61.1703 29.5991C61.4621 29.3608 61.7024 28.9608 61.8912 28.3651L65.5384 17.2417L69.177 28.3651C69.3658 28.9608 69.5976 29.3608 69.8979 29.5991C70.1897 29.8374 70.5673 29.9566 70.9964 29.9566C71.4598 29.9566 71.8287 29.8374 72.1205 29.5991C72.4037 29.3608 72.6354 28.9608 72.85 28.3736L77.6814 14.7226C77.7501 14.5098 77.8016 14.3055 77.8531 14.1183C77.896 13.9226 77.9218 13.7438 77.9218 13.5821C77.9218 13.2672 77.8016 12.9523 77.5699 12.646C77.3382 12.314 76.9263 12.1523 76.3685 12.1523Z" fill="#002030"/>
<path d="M93.9437 12.5013C93.609 12.2715 93.2743 12.1523 92.9482 12.1523C92.605 12.1523 92.2617 12.2715 91.9356 12.5183C91.5924 12.7736 91.4207 13.1821 91.4207 13.7353V14.297C90.7943 13.6587 90.1334 13.1481 89.4555 12.7821C88.6831 12.3651 87.7649 12.1523 86.7265 12.1523C85.4736 12.1523 84.3323 12.3992 83.354 12.8928C82.3756 13.3864 81.5432 14.0502 80.8653 14.8757C80.1959 15.7013 79.6724 16.663 79.3291 17.7268C78.9858 18.7906 78.8057 19.9055 78.8057 21.0545C78.8057 22.2034 78.9773 23.3183 79.3291 24.3821C79.6724 25.4459 80.1959 26.4076 80.8653 27.2332C81.5432 28.0587 82.3756 28.731 83.354 29.2161C84.3323 29.7098 85.465 29.9566 86.7265 29.9566C87.6963 29.9566 88.6145 29.7438 89.4383 29.3098C90.1592 28.9353 90.8286 28.3736 91.4207 27.6332V28.3991C91.4207 28.9438 91.5924 29.3523 91.9356 29.5991C92.2617 29.8374 92.605 29.9566 92.9482 29.9566C93.2658 29.9566 93.6004 29.8374 93.9437 29.6076C94.2955 29.3608 94.4844 28.9608 94.4844 28.4076V13.7098C94.4758 13.1566 94.2955 12.7481 93.9437 12.5013ZM86.7265 27.1225C85.8769 27.1225 85.1561 26.9353 84.5639 26.5779C83.9718 26.2119 83.4827 25.7353 83.1137 25.1481C82.7361 24.5608 82.47 23.9055 82.307 23.1991C82.1439 22.4842 82.0667 21.7608 82.0667 21.0545C82.0667 20.3481 82.1525 19.6332 82.307 18.9098C82.47 18.2034 82.7361 17.5396 83.1137 16.9608C83.4827 16.3821 83.9718 15.897 84.5639 15.5311C85.1475 15.1651 85.8769 14.9864 86.7265 14.9864C87.5933 14.9864 88.3227 15.1736 88.8977 15.5311C89.4812 15.897 89.9618 16.3736 90.3308 16.9608C90.7084 17.5481 90.9745 18.2034 91.1375 18.9098C91.3006 19.6247 91.3778 20.3481 91.3778 21.0545C91.3778 21.7608 91.292 22.4842 91.1375 23.1991C90.9745 23.9055 90.7084 24.5608 90.3308 25.1481C89.9618 25.7268 89.4726 26.2119 88.8977 26.5779C88.3227 26.9353 87.5933 27.1225 86.7265 27.1225Z" fill="#002030"/>
<path d="M107.708 20.8923C107.013 20.4923 106.241 20.1434 105.417 19.854C104.61 19.5732 103.847 19.2838 103.16 18.9945C102.482 18.7136 101.907 18.3987 101.461 18.0753C101.04 17.7689 100.834 17.403 100.834 16.9689C100.834 16.3051 101.1 15.82 101.658 15.5051C102.233 15.1732 102.937 15.003 103.744 15.003C104.422 15.003 104.979 15.0881 105.4 15.2668C105.829 15.4455 106.198 15.6413 106.49 15.854C106.79 16.0668 107.073 16.2711 107.331 16.4583C107.614 16.6625 107.931 16.7732 108.275 16.7732C108.764 16.7732 109.142 16.637 109.399 16.3562C109.648 16.0838 109.777 15.7689 109.777 15.42C109.777 14.9179 109.562 14.4583 109.142 14.0498C108.747 13.6668 108.24 13.3349 107.657 13.054C107.073 12.7732 106.421 12.5604 105.717 12.3987C105.014 12.2455 104.344 12.1689 103.744 12.1689C103.006 12.1689 102.259 12.2711 101.53 12.4753C100.8 12.6796 100.131 12.9945 99.5558 13.4115C98.9722 13.8285 98.5003 14.3562 98.1312 14.9689C97.7622 15.5902 97.582 16.3136 97.582 17.1306C97.582 17.9562 97.8308 18.6625 98.32 19.2413C98.792 19.7945 99.3927 20.2881 100.105 20.6881C100.809 21.0881 101.572 21.4455 102.396 21.7519C103.212 22.0583 103.967 22.3732 104.653 22.6881C105.331 23.003 105.906 23.3434 106.352 23.7179C106.782 24.0668 106.987 24.4923 106.987 24.9945C106.987 25.5221 106.713 25.9987 106.138 26.4413C105.563 26.8923 104.756 27.1221 103.744 27.1221C102.971 27.1221 102.319 27.02 101.787 26.8072C101.246 26.5945 100.766 26.3476 100.362 26.0838C99.9506 25.8115 99.5815 25.5647 99.2726 25.3519C98.9379 25.1136 98.5775 24.9945 98.2171 24.9945C97.8652 24.9945 97.5391 25.1306 97.2644 25.403C96.9898 25.6753 96.8525 26.0327 96.8525 26.4753C96.8525 26.8838 97.0413 27.3093 97.4103 27.7349C97.7622 28.1434 98.2514 28.5178 98.8692 28.8412C99.4785 29.1647 100.191 29.437 101.006 29.6412C101.821 29.854 102.705 29.9561 103.649 29.9561C104.482 29.9561 105.297 29.8455 106.078 29.6327C106.867 29.4115 107.58 29.0795 108.189 28.6285C108.798 28.1774 109.305 27.6157 109.674 26.9434C110.051 26.271 110.24 25.4625 110.24 24.5434C110.24 23.6753 109.991 22.9434 109.502 22.3562C109.021 21.7859 108.421 21.2923 107.708 20.8923Z" fill="#002030"/>
<path d="M126.382 15.7015C125.987 14.859 125.481 14.1696 124.863 13.642C124.254 13.1143 123.567 12.7313 122.829 12.5015C122.1 12.2717 121.371 12.1526 120.675 12.1526C119.774 12.1526 118.873 12.3313 117.998 12.6888C117.217 13.0037 116.522 13.5228 115.921 14.2207V6.01644C115.921 5.48027 115.775 5.05474 115.475 4.74836C115.175 4.43346 114.78 4.28027 114.291 4.28027C113.802 4.28027 113.407 4.43347 113.106 4.73985C112.815 5.04623 112.66 5.46325 112.66 5.9824V28.2632C112.66 28.7824 112.806 29.1994 113.106 29.5058C113.407 29.8121 113.802 29.9653 114.291 29.9653C114.78 29.9653 115.175 29.8121 115.475 29.5143C115.775 29.2164 115.921 28.8079 115.921 28.2887V19.0122C115.921 18.2973 116.041 17.6675 116.273 17.1654C116.505 16.6547 116.805 16.2377 117.174 15.9313C117.543 15.6164 117.964 15.3781 118.427 15.2249C119.354 14.9186 120.298 14.9186 121.233 15.2249C121.697 15.3781 122.117 15.6164 122.486 15.9313C122.855 16.2462 123.156 16.6632 123.387 17.1654C123.619 17.676 123.739 18.2973 123.739 19.0122V28.2887C123.739 28.7994 123.894 29.2164 124.185 29.5143C124.486 29.8121 124.88 29.9653 125.37 29.9653C125.859 29.9653 126.253 29.8121 126.554 29.5143C126.854 29.2164 127 28.7994 127 28.2887V18.8164C126.974 17.5909 126.777 16.5441 126.382 15.7015Z" fill="#002030"/>
<path d="M19.0944 32.3831H1.29604C0.583761 32.3831 0.00878906 31.8129 0.00878906 31.1065C0.00878906 30.4001 0.583761 29.8299 1.29604 29.8299H19.0944C22.0293 29.8299 24.4151 27.464 24.4151 24.5533C24.4151 21.6427 22.0293 19.2767 19.0944 19.2767H7.90393C3.55302 19.2767 0.00878906 15.7618 0.00878906 11.447C0.00878906 7.13207 3.55302 3.61719 7.90393 3.61719H25.7023C26.4146 3.61719 26.9896 4.1874 26.9896 4.89378C26.9896 5.60016 26.4146 6.17037 25.7023 6.17037H7.90393C4.96899 6.17037 2.58329 8.53633 2.58329 11.447C2.58329 14.3576 4.96899 16.7235 7.90393 16.7235H19.0944C23.4453 16.7235 26.9896 20.2384 26.9896 24.5533C26.9896 28.8682 23.4453 32.3831 19.0944 32.3831Z" fill="#3CE35F"/>
<path d="M22.2092 8.23805C24.1486 8.23805 25.7191 6.6806 25.7191 4.7572C25.7191 2.8338 24.1486 1.27637 22.2092 1.27637C20.2697 1.27637 18.6992 2.8338 18.6992 4.7572C18.6992 6.6806 20.2697 8.23805 22.2092 8.23805Z" fill="white"/>
<path d="M22.7972 9.51487C20.154 9.51487 18 7.3787 18 4.75743C18 2.13616 20.154 0 22.7972 0C25.4403 0 27.5943 2.13616 27.5943 4.75743C27.5943 7.3787 25.4403 9.51487 22.7972 9.51487ZM22.7972 2.5617C21.57 2.5617 20.5745 3.54893 20.5745 4.76595C20.5745 5.98297 21.57 6.97019 22.7972 6.97019C24.0244 6.97019 25.0198 5.98297 25.0198 4.76595C25.0198 3.54893 24.0158 2.5617 22.7972 2.5617Z" fill="#3CE35F"/>
<path d="M13.4992 21.4802C15.4387 21.4802 17.0091 19.9228 17.0091 17.9994C17.0091 16.076 15.4387 14.5186 13.4992 14.5186C11.5597 14.5186 9.98926 16.076 9.98926 17.9994C9.98926 19.9228 11.5597 21.4802 13.4992 21.4802Z" fill="white"/>
<path d="M13.4993 22.7571C10.8562 22.7571 8.70215 20.6209 8.70215 17.9996C8.70215 15.3784 10.8562 13.2422 13.4993 13.2422C16.1425 13.2422 18.2965 15.3784 18.2965 17.9996C18.2965 20.6209 16.1425 22.7571 13.4993 22.7571ZM13.4993 15.8039C12.2722 15.8039 11.2766 16.7911 11.2766 18.0081C11.2766 19.2252 12.2722 20.2124 13.4993 20.2124C14.7265 20.2124 15.722 19.2252 15.722 18.0081C15.722 16.7911 14.7179 15.8039 13.4993 15.8039Z" fill="#3CE35F"/>
<path d="M4.797 34.7234C6.73646 34.7234 8.30694 33.166 8.30694 31.2426C8.30694 29.3192 6.73646 27.7617 4.797 27.7617C2.85755 27.7617 1.28711 29.3192 1.28711 31.2426C1.29569 33.166 2.86613 34.7234 4.797 34.7234Z" fill="white"/>
<path d="M4.79715 36.0002C2.15399 36.0002 0 33.8641 0 31.2428C0 28.6215 2.15399 26.4854 4.79715 26.4854C7.4403 26.4854 9.59433 28.6215 9.59433 31.2428C9.59433 33.8641 7.4403 36.0002 4.79715 36.0002ZM4.79715 29.047C3.56997 29.047 2.5745 30.0343 2.5745 31.2513C2.5745 32.4683 3.56997 33.4556 4.79715 33.4556C6.02432 33.4556 7.01983 32.4683 7.01983 31.2513C7.01983 30.0343 6.02432 29.047 4.79715 29.047Z" fill="#3CE35F"/>
</svg>