<svg width="531" height="153" viewBox="0 0 531 153" fill="none" xmlns="http://www.w3.org/2000/svg">
<path d="M207.827 73.1833C204.35 71.1405 200.516 69.4561 196.394 68.1659C192.38 66.9115 188.617 65.5497 185.177 64.1161C181.808 62.7184 178.977 60.9982 176.719 59.0271C174.569 57.1277 173.493 54.5473 173.493 51.2143C173.493 47.3438 174.855 44.2617 177.651 41.8605C180.446 39.4593 184.066 38.2408 188.366 38.2408C191.305 38.2408 193.706 38.5634 195.534 39.1726C197.362 39.7819 198.939 40.5345 200.229 41.3229C201.555 42.1472 202.738 42.8998 203.741 43.5449C204.852 44.2617 206.214 44.6201 207.719 44.6201C209.475 44.6201 210.944 44.0108 212.055 42.7923C213.131 41.6096 213.704 40.1761 213.704 38.4917C213.704 36.7356 212.952 35.0512 211.446 33.5102C210.013 32.0408 208.113 30.7506 205.748 29.6755C203.454 28.6361 200.802 27.8119 197.864 27.2026C194.925 26.5933 191.879 26.3066 188.797 26.3066C184.209 26.3066 180.016 27.0951 176.361 28.672C172.705 30.2489 169.551 32.2558 167.007 34.7287C164.462 37.1657 162.491 39.9611 161.129 42.9357C159.767 45.9461 159.051 48.9565 159.051 51.8594C159.051 57.2352 160.269 61.6074 162.635 64.8329C165 68.0225 167.974 70.6387 171.486 72.6457C174.963 74.6168 178.798 76.2295 182.883 77.5197C186.897 78.774 190.66 80.1359 194.101 81.5695C197.469 82.9672 200.301 84.759 202.523 86.8735C204.673 88.8805 205.748 91.7475 205.748 95.2955C205.748 97.9117 205.282 100.385 204.422 102.642C203.526 104.9 202.236 106.907 200.551 108.627C198.867 110.348 196.824 111.745 194.423 112.749C192.022 113.752 189.298 114.254 186.252 114.254C183.206 114.254 180.554 113.86 178.332 113.107C176.074 112.355 174.067 111.494 172.275 110.527C170.483 109.559 168.942 108.699 167.688 107.911C166.29 107.051 165 106.62 163.853 106.62C161.846 106.62 160.341 107.373 159.373 108.807C158.477 110.168 158.011 111.781 158.011 113.573C158.011 115.544 158.907 117.3 160.663 118.877C162.312 120.347 164.534 121.637 167.222 122.748C169.874 123.823 172.92 124.683 176.217 125.292C179.514 125.902 182.847 126.188 186.109 126.188C191.52 126.188 196.394 125.328 200.623 123.644C204.852 121.959 208.436 119.63 211.303 116.763C214.17 113.896 216.392 110.527 217.897 106.764C219.403 103.001 220.155 99.0228 220.155 94.973C220.155 89.4181 218.937 84.8666 216.571 81.4619C214.313 78.0214 211.339 75.2619 207.827 73.1833Z" fill="#003149"/>
<path d="M318.926 51.1777C317.492 51.1777 316.13 51.572 314.84 52.3604C313.478 53.1847 312.367 54.9408 311.471 57.772L296.383 105.15L281.582 59.5281C280.722 56.8761 279.862 54.8333 278.93 53.4714C277.927 51.9662 276.17 51.1777 273.697 51.1777C271.225 51.1777 269.469 51.9303 268.465 53.4714C267.533 54.8333 266.673 56.8402 265.813 59.5281L251.012 105.15L235.924 57.772C235.028 54.9766 233.953 53.1847 232.555 52.3604C231.265 51.572 229.867 51.1777 228.47 51.1777C226.104 51.1777 224.42 51.8587 223.416 53.2205C222.449 54.5107 221.947 55.8368 221.947 57.1628C221.947 57.8437 222.054 58.6321 222.234 59.4206C222.413 60.1732 222.664 61.0333 222.95 61.9651L243.127 119.45C244.023 121.923 244.991 123.643 246.174 124.611C247.356 125.614 248.933 126.152 250.869 126.152C252.696 126.152 254.237 125.65 255.456 124.646C256.674 123.643 257.678 121.959 258.466 119.45L273.697 72.6091L288.893 119.45C289.681 121.959 290.649 123.643 291.904 124.646C293.122 125.65 294.699 126.152 296.491 126.152C298.426 126.152 299.967 125.65 301.186 124.646C302.368 123.643 303.336 121.959 304.232 119.486L324.409 62.001C324.695 61.105 324.91 60.2448 325.126 59.4564C325.305 58.6321 325.412 57.8795 325.412 57.1986C325.412 55.8726 324.911 54.5466 323.943 53.2564C322.975 51.8587 321.255 51.1777 318.926 51.1777Z" fill="#003149"/>
<path d="M392.322 52.6471C390.925 51.6795 389.527 51.1777 388.165 51.1777C386.732 51.1777 385.298 51.6795 383.936 52.7188C382.503 53.794 381.786 55.5142 381.786 57.8437V60.209C379.17 57.5212 376.41 55.3708 373.579 53.8298C370.354 52.0737 366.519 51.1777 362.183 51.1777C356.95 51.1777 352.184 52.2171 348.098 54.2957C344.013 56.3743 340.536 59.1697 337.705 62.646C334.91 66.1223 332.723 70.1721 331.29 74.6519C329.856 79.1317 329.104 83.8265 329.104 88.6647C329.104 93.5029 329.82 98.1977 331.29 102.678C332.723 107.157 334.91 111.207 337.705 114.683C340.536 118.16 344.013 120.991 348.098 123.034C352.184 125.112 356.914 126.152 362.183 126.152C366.232 126.152 370.067 125.256 373.507 123.428C376.518 121.851 379.313 119.486 381.786 116.368V119.593C381.786 121.887 382.503 123.607 383.936 124.646C385.298 125.65 386.732 126.152 388.165 126.152C389.491 126.152 390.889 125.65 392.322 124.682C393.792 123.643 394.581 121.959 394.581 119.629V57.7362C394.545 55.4067 393.792 53.6864 392.322 52.6471ZM362.183 114.217C358.635 114.217 355.624 113.429 353.151 111.924C350.678 110.383 348.636 108.376 347.095 105.903C345.518 103.43 344.407 100.671 343.726 97.696C343.045 94.6855 342.722 91.6393 342.722 88.6647C342.722 85.6901 343.081 82.6797 343.726 79.6334C344.407 76.6588 345.518 73.8634 347.095 71.4264C348.636 68.9894 350.678 66.9466 353.151 65.4056C355.588 63.8645 358.635 63.1119 362.183 63.1119C365.802 63.1119 368.848 63.9004 371.25 65.4056C373.687 66.9466 375.694 68.9536 377.235 71.4264C378.812 73.8993 379.923 76.6588 380.604 79.6334C381.285 82.6438 381.607 85.6901 381.607 88.6647C381.607 91.6393 381.249 94.6855 380.604 97.696C379.923 100.671 378.812 103.43 377.235 105.903C375.694 108.34 373.651 110.383 371.25 111.924C368.848 113.429 365.802 114.217 362.183 114.217Z" fill="#003149"/>
<path d="M449.807 87.9843C446.904 86.2999 443.679 84.8305 440.238 83.612C436.87 82.4294 433.68 81.2109 430.813 79.9924C427.982 78.8097 425.581 77.4837 423.717 76.1218C421.961 74.8316 421.101 73.2906 421.101 71.4628C421.101 68.6674 422.212 66.6246 424.541 65.2986C426.942 63.9009 429.881 63.1842 433.25 63.1842C436.081 63.1842 438.41 63.5425 440.167 64.2951C441.958 65.0477 443.5 65.872 444.718 66.768C445.972 67.664 447.155 68.5241 448.23 69.3125C449.413 70.1726 450.739 70.6386 452.172 70.6386C454.215 70.6386 455.792 70.0651 456.867 68.8825C457.907 67.7356 458.444 66.4096 458.444 64.9402C458.444 62.8258 457.548 60.8905 455.792 59.1703C454.144 57.5575 452.029 56.1598 449.592 54.9772C447.155 53.7945 444.431 52.8985 441.493 52.2176C438.554 51.5725 435.759 51.25 433.25 51.25C430.168 51.25 427.05 51.6801 424.004 52.5402C420.957 53.4003 418.162 54.7263 415.761 56.4824C413.324 58.2385 411.353 60.4604 409.812 63.0408C408.271 65.657 407.518 68.7033 407.518 72.1438C407.518 75.6201 408.557 78.5947 410.6 81.0317C412.571 83.3612 415.08 85.4398 418.055 87.1242C420.993 88.8086 424.183 90.3138 427.623 91.604C431.028 92.8942 434.182 94.2202 437.049 95.5462C439.88 96.8723 442.281 98.3058 444.145 99.8827C445.937 101.352 446.797 103.144 446.797 105.258C446.797 107.48 445.65 109.487 443.249 111.351C440.848 113.25 437.479 114.218 433.25 114.218C430.024 114.218 427.301 113.788 425.079 112.892C422.821 111.996 420.814 110.957 419.13 109.846C417.409 108.699 415.868 107.66 414.578 106.764C413.18 105.76 411.675 105.258 410.17 105.258C408.701 105.258 407.339 105.832 406.192 106.979C405.045 108.126 404.472 109.631 404.472 111.494C404.472 113.215 405.26 115.006 406.801 116.798C408.271 118.519 410.313 120.095 412.894 121.457C415.438 122.819 418.413 123.966 421.818 124.826C425.222 125.722 428.914 126.152 432.856 126.152C436.332 126.152 439.737 125.686 442.998 124.79C446.295 123.859 449.27 122.461 451.814 120.561C454.359 118.662 456.473 116.297 458.014 113.465C459.591 110.634 460.38 107.23 460.38 103.359C460.38 99.7035 459.34 96.6214 457.298 94.1485C455.291 91.7474 452.782 89.6687 449.807 87.9843Z" fill="#003149"/>
<path d="M527.791 66.1225C526.143 62.5745 524.029 59.6715 521.448 57.4496C518.904 55.2276 516.037 53.6148 512.955 52.6472C509.908 51.6796 506.862 51.1778 503.959 51.1778C500.196 51.1778 496.433 51.9305 492.778 53.4357C489.516 54.7617 486.613 56.9478 484.105 59.8866V25.3384C484.105 23.0806 483.495 21.2886 482.241 19.9985C480.987 18.6724 479.338 18.0273 477.295 18.0273C475.253 18.0273 473.604 18.6724 472.35 19.9626C471.131 21.2528 470.486 23.0089 470.486 25.195V119.02C470.486 121.206 471.095 122.962 472.35 124.252C473.604 125.543 475.253 126.188 477.295 126.188C479.338 126.188 480.987 125.542 482.241 124.288C483.495 123.034 484.105 121.314 484.105 119.127V80.0636C484.105 77.0532 484.606 74.4011 485.574 72.2867C486.542 70.1364 487.796 68.3803 489.337 67.0901C490.878 65.7641 492.634 64.7606 494.57 64.1155C498.44 62.8253 502.382 62.8253 506.288 64.1155C508.224 64.7606 509.98 65.7641 511.521 67.0901C513.062 68.4161 514.316 70.1722 515.284 72.2867C516.252 74.437 516.753 77.0532 516.753 80.0636V119.127C516.753 121.278 517.398 123.034 518.617 124.288C519.871 125.542 521.52 126.188 523.563 126.188C525.605 126.188 527.254 125.542 528.508 124.288C529.763 123.034 530.372 121.278 530.372 119.127V79.2393C530.264 74.0787 529.44 69.6705 527.791 66.1225Z" fill="#003149"/>
<path fill-rule="evenodd" clip-rule="evenodd" d="M73.9031 25.982C76.4455 34.1292 84.0653 40.0673 93.0336 40.0673C104.072 40.0673 113.067 31.0719 113.067 20.0337C113.067 8.99544 104.072 0 93.0336 0C83.6502 0 75.743 6.50052 73.5831 15.2305H33.007C14.8369 15.2305 0.0356445 30.0317 0.0356445 48.2018C0.0356445 66.3718 14.8369 81.1731 33.007 81.1731H36.6694C38.9469 89.7332 46.7711 96.0673 56.0336 96.0673C65.2962 96.0673 73.1204 89.7332 75.398 81.1731H79.7402C91.9969 81.1731 101.96 91.1362 101.96 103.393C101.96 115.65 91.9969 125.613 79.7402 125.613H39.0103C36.3251 117.709 28.8276 112 20.0336 112C8.9954 112 0 120.995 0 132.034C0 143.072 8.9954 152.067 20.0336 152.067C29.5856 152.067 37.608 145.331 39.5952 136.364H79.7402C97.9102 136.364 112.711 121.563 112.711 103.393C112.711 85.2228 97.9102 70.4216 79.7402 70.4216H75.266C72.8305 62.102 65.1249 56 56.0336 56C46.9424 56 39.2368 62.102 36.8014 70.4216H33.007C20.7502 70.4216 10.7872 60.4585 10.7872 48.2018C10.7872 35.9451 20.7502 25.982 33.007 25.982H73.9031ZM93.0336 10.7871C87.9087 10.7871 83.7515 14.9444 83.7515 20.0693C83.7515 25.1941 87.9087 29.3514 93.0336 29.3514C98.1585 29.3514 102.316 25.1941 102.316 20.0693C102.316 14.9444 98.1585 10.7871 93.0336 10.7871ZM46.7515 76.0693C46.7515 70.9444 50.9087 66.7871 56.0336 66.7871C61.1585 66.7871 65.3158 70.9444 65.3158 76.0693C65.3158 81.1942 61.1585 85.3514 56.0336 85.3514C50.9087 85.3514 46.7515 81.1942 46.7515 76.0693ZM10.7515 132.069C10.7515 126.944 14.9087 122.787 20.0336 122.787C25.1585 122.787 29.3159 126.944 29.3159 132.069C29.3159 137.194 25.1585 141.351 20.0336 141.351C14.9087 141.351 10.7515 137.194 10.7515 132.069Z" fill="#3CE35F"/>
</svg>
