<svg width="106" height="30" viewBox="0 0 106 30" fill="none" xmlns="http://www.w3.org/2000/svg">
<g clip-path="url(#clip0_9665_4545)">
<path d="M16.9295 13.75H15.6394C15.1186 12.1715 13.6523 11.0337 11.8975 11.0337C10.1427 11.0337 8.67631 12.1795 8.15548 13.75H7.49042C5.12664 13.75 3.20357 11.8269 3.20357 9.46314C3.20357 7.09936 5.12664 5.17628 7.49042 5.17628H15.984C16.5048 6.76282 17.9712 7.91667 19.734 7.91667C21.9215 7.91667 23.6923 6.14583 23.6923 3.95833C23.6923 1.77083 21.9215 0 19.734 0C17.9872 0 16.5289 1.13782 16 2.70032H7.05772C3.33177 2.70032 0.294922 5.73718 0.294922 9.46314C0.294922 13.1891 3.33177 16.226 7.05772 16.226H8.15548C8.67631 17.8045 10.1427 18.9423 11.8975 18.9423C13.6523 18.9423 15.1186 17.7965 15.6394 16.226H16.4968C18.8606 16.226 20.7837 18.149 20.7837 20.5128C20.7837 22.8766 18.8606 24.7997 16.4968 24.7997H7.99522C7.47439 23.2212 6.00805 22.0833 4.25324 22.0833C2.06575 22.0833 0.294922 23.8542 0.294922 26.0417C0.294922 28.2292 2.06575 30 4.25324 30C6.00805 30 7.47439 28.8542 7.99522 27.2837H16.9295C20.6635 27.2837 23.6923 24.2468 23.6923 20.5208C23.6923 16.7949 20.6554 13.758 16.9295 13.758V13.75ZM19.734 2.48397C20.5513 2.48397 21.2163 3.14904 21.2163 3.96635C21.2163 4.78365 20.5513 5.44872 19.734 5.44872C18.9167 5.44872 18.2516 4.78365 18.2516 3.96635C18.2516 3.14904 18.9167 2.48397 19.734 2.48397ZM11.8975 16.4744C11.0801 16.4744 10.4151 15.8093 10.4151 14.992C10.4151 14.1747 11.0801 13.5096 11.8975 13.5096C12.7148 13.5096 13.3798 14.1747 13.3798 14.992C13.3798 15.8093 12.7148 16.4744 11.8975 16.4744ZM4.25324 27.524C3.43594 27.524 2.77088 26.859 2.77088 26.0417C2.77088 25.2244 3.43594 24.5593 4.25324 24.5593C5.07055 24.5593 5.73561 25.2244 5.73561 26.0417C5.73561 26.859 5.07055 27.524 4.25324 27.524Z" fill="#141414"/>
<path d="M39.669 14.3754C38.8196 14.0709 37.8902 13.8305 36.8725 13.6542L35.8629 13.478C35.0937 13.3417 34.4847 13.1414 34.028 12.869C33.5793 12.5966 33.3469 12.1799 33.3469 11.603C33.3469 11.0661 33.5793 10.6494 34.036 10.345C34.4927 10.0405 35.1338 9.89623 35.943 9.89623C36.7523 9.89623 37.4655 10.0725 38.0184 10.4331C38.5793 10.7857 38.9398 11.4026 39.1161 12.268L41.8885 11.4908C41.5841 10.2568 40.911 9.28726 39.8853 8.56611C38.8597 7.84495 37.5456 7.48438 35.9511 7.48438C34.3565 7.48438 32.9703 7.85296 31.9687 8.59816C30.9671 9.33534 30.4703 10.385 30.4703 11.7312C30.4703 12.6366 30.7027 13.3738 31.1594 13.9507C31.6241 14.5276 32.2491 14.9764 33.0344 15.3049C33.8197 15.6334 34.7011 15.8818 35.6626 16.0581L36.6402 16.2344C37.5857 16.4107 38.2908 16.627 38.7716 16.8994C39.2523 17.1719 39.4927 17.5885 39.4927 18.1655C39.4927 18.7424 39.2363 19.2151 38.7315 19.5757C38.2187 19.9443 37.4975 20.1206 36.552 20.1206C35.919 20.1206 35.3261 20.0244 34.7812 19.8321C34.2363 19.6398 33.7796 19.3113 33.411 18.8546C33.0424 18.3898 32.786 17.7648 32.6338 16.9796L29.8613 17.6446C30.1338 19.2792 30.8629 20.4972 32.0568 21.3065C33.2507 22.1158 34.7491 22.5164 36.56 22.5164C38.3709 22.5164 39.7732 22.1238 40.8309 21.3305C41.8885 20.5453 42.4174 19.4395 42.4174 18.0132C42.4174 17.0517 42.169 16.2825 41.6802 15.7055C41.1914 15.1286 40.5184 14.6879 39.677 14.3754H39.669Z" fill="#141414"/>
<path d="M58.6104 20.1203H58.1537L55.7017 7.88477H50.886L48.4021 20.1203H47.9373L46.1505 7.88477H43.1777L45.6056 22.1075H50.5976L53.0495 9.904H53.5062L55.9582 22.1075H60.9501L63.37 7.88477H60.4053L58.6104 20.1203Z" fill="#141414"/>
<path d="M88.8272 14.3754C87.9778 14.0709 87.0484 13.8305 86.0307 13.6542L85.0211 13.478C84.2519 13.3417 83.6429 13.1414 83.1862 12.869C82.7375 12.5966 82.5051 12.1799 82.5051 11.603C82.5051 11.0661 82.7375 10.6494 83.1942 10.345C83.6509 10.0405 84.292 9.89623 85.1012 9.89623C85.9105 9.89623 86.6237 10.0725 87.1766 10.4331C87.7375 10.7857 88.098 11.4026 88.2743 12.268L91.0467 11.4908C90.7423 10.2568 90.0692 9.28726 89.0435 8.56611C88.0179 7.84495 86.7038 7.48438 85.1093 7.48438C83.5147 7.48438 82.1285 7.85296 81.1269 8.59816C80.1253 9.33534 79.6285 10.385 79.6285 11.7312C79.6285 12.6366 79.8609 13.3738 80.3176 13.9507C80.7743 14.5276 81.4073 14.9764 82.1926 15.3049C82.9779 15.6334 83.8593 15.8818 84.8208 16.0581L85.7984 16.2344C86.7439 16.4107 87.449 16.627 87.9298 16.8994C88.4105 17.1719 88.6509 17.5885 88.6509 18.1655C88.6509 18.7424 88.3945 19.2151 87.8897 19.5757C87.3769 19.9443 86.6557 20.1206 85.7102 20.1206C85.0772 20.1206 84.4843 20.0244 83.9394 19.8321C83.3945 19.6398 82.9378 19.3113 82.5692 18.8546C82.2006 18.3898 81.9442 17.7648 81.792 16.9796L79.0195 17.6446C79.292 19.2792 80.0211 20.4972 81.215 21.3065C82.4089 22.1158 83.9073 22.5164 85.7182 22.5164C87.5291 22.5164 88.9314 22.1238 89.9891 21.3305C91.0467 20.5373 91.5756 19.4395 91.5756 18.0132C91.5756 17.0517 91.3272 16.2825 90.8384 15.7055C90.3496 15.1286 89.6766 14.6879 88.8352 14.3754H88.8272Z" fill="#141414"/>
<path d="M71.2225 7.48438C70.0286 7.48438 69.011 7.67668 68.1616 8.0613C67.3123 8.44591 66.6392 8.95072 66.1264 9.57572C65.6136 10.2007 65.245 10.8978 65.0126 11.6671L67.7851 12.5645C67.9613 11.7953 68.3139 11.1703 68.8507 10.6895C69.3876 10.2087 70.1649 9.96835 71.1905 9.96835C72.2161 9.96835 73.0014 10.2167 73.4982 10.7216C73.995 11.2183 74.2514 11.8834 74.2514 12.7087V13.6302H69.9245C68.8828 13.6302 67.9613 13.7905 67.144 14.119C66.3267 14.4475 65.6857 14.9283 65.2129 15.5773C64.7402 16.2183 64.5078 17.0357 64.5078 18.0132C64.5078 18.9908 64.7402 19.7921 65.2129 20.4651C65.6857 21.1382 66.3187 21.651 67.12 21.9956C67.9213 22.3401 68.394 22.5164 69.4116 22.5164C70.237 22.5164 71.1825 22.3802 71.7754 22.0998C72.3684 21.8193 72.8251 21.4908 73.1296 21.1062C73.4341 20.7216 73.6664 20.385 73.8187 20.0966H74.2514V22.1158H77.168V12.9171C77.168 11.1863 76.6392 9.84816 75.5815 8.91066C74.5238 7.96514 73.0735 7.5004 71.2225 7.5004V7.48438ZM74.2514 16.2264C74.2514 17.4203 73.8828 18.3578 73.1536 19.0389C72.4245 19.72 71.4629 20.0645 70.269 20.0645C69.4036 20.0645 68.7225 19.8722 68.2177 19.4876C67.7209 19.103 67.4645 18.5821 67.4645 17.9331C67.4645 17.2841 67.7049 16.7873 68.1857 16.4507C68.6665 16.1142 69.2995 15.9459 70.0927 15.9459H74.2434V16.2344L74.2514 16.2264Z" fill="#141414"/>
<path d="M102.434 7.88477V13.63H96.3927V7.88477H93.4199V22.1075H96.3927V15.9377H102.434V22.1075H105.407V7.88477H102.434Z" fill="#141414"/>
</g>
<defs>
<clipPath id="clip0_9665_4545">
<rect width="105.833" height="30" fill="white"/>
</clipPath>
</defs>
</svg>
