<svg width="109" height="20" viewBox="0 0 109 20" fill="none" xmlns="http://www.w3.org/2000/svg">
<path d="M66.1803 7.88415C66.5079 8.16373 66.7762 8.52902 66.9854 8.97547C67.1947 9.42192 67.2992 9.97661 67.3129 10.626V15.6451C67.3129 15.9158 67.2356 16.1367 67.0764 16.2945C66.9172 16.4523 66.7079 16.5336 66.4488 16.5336C66.1895 16.5336 65.9802 16.4523 65.821 16.2945C65.6663 16.1367 65.5845 15.9158 65.5845 15.6451V10.7297C65.5845 10.3509 65.5209 10.0217 65.398 9.75112C65.2752 9.48505 65.116 9.26408 64.9204 9.09722C64.7249 8.93037 64.502 8.8041 64.2563 8.72293C63.7605 8.56058 63.2602 8.56058 62.7691 8.72293C62.5234 8.8041 62.3005 8.93037 62.1049 9.09722C61.9093 9.25957 61.7502 9.48054 61.6273 9.75112C61.5045 10.0172 61.4409 10.3509 61.4409 10.7297V15.6451C61.4409 15.9203 61.3635 16.1367 61.2043 16.2945C61.0452 16.4523 60.8359 16.5336 60.5766 16.5336C60.3174 16.5336 60.1081 16.4524 59.949 16.29C59.7897 16.1277 59.7124 15.9067 59.7124 15.6316V3.82551C59.7124 3.55043 59.7943 3.32945 59.949 3.16711C60.1081 3.00476 60.3174 2.92358 60.5766 2.92358C60.8359 2.92358 61.0452 3.00476 61.2043 3.17162C61.3635 3.33396 61.4409 3.55945 61.4409 3.84355V8.1908C61.7592 7.821 62.1276 7.54592 62.5416 7.37907C63.0055 7.18967 63.4831 7.09496 63.9607 7.09496C64.3291 7.09496 64.7157 7.1581 65.1024 7.27985C65.4936 7.40161 65.8575 7.60455 66.1803 7.88415Z" fill="#002030"/>
<path d="M26.3767 9.86396C25.9354 9.60692 25.4488 9.39497 24.9256 9.23262C24.4162 9.07478 23.9386 8.90342 23.502 8.72303C23.0744 8.54715 22.7151 8.3307 22.4286 8.08267C22.1557 7.84367 22.0191 7.51897 22.0191 7.09958C22.0191 6.61255 22.192 6.22472 22.5468 5.92257C22.9016 5.62043 23.361 5.4671 23.9068 5.4671C24.2798 5.4671 24.5845 5.5077 24.8165 5.58435C25.0485 5.66102 25.2486 5.75572 25.4124 5.85493C25.5807 5.95865 25.7308 6.05335 25.8581 6.13452C25.9991 6.22472 26.172 6.26982 26.363 6.26982C26.5858 6.26982 26.7723 6.19315 26.9133 6.03982C27.0498 5.891 27.1226 5.71062 27.1226 5.49867C27.1226 5.2777 27.0271 5.06575 26.836 4.87184C26.6541 4.68695 26.413 4.5246 26.1128 4.38932C25.8217 4.25853 25.4851 4.15482 25.1122 4.07815C24.7392 4.00148 24.3526 3.96541 23.9615 3.96541C23.3792 3.96541 22.847 4.06462 22.3831 4.26305C21.9191 4.46147 21.5188 4.714 21.1959 5.02517C20.8729 5.33182 20.6228 5.68357 20.4499 6.05787C20.2771 6.43667 20.1862 6.81547 20.1862 7.18075C20.1862 7.85719 20.3408 8.40735 20.6411 8.81322C20.9412 9.21457 21.3187 9.54377 21.7644 9.79632C22.2057 10.0443 22.6924 10.2473 23.2109 10.4096C23.7203 10.5675 24.1979 10.7388 24.6346 10.9192C25.0621 11.0951 25.4215 11.3206 25.7035 11.5866C25.9764 11.8392 26.1128 12.1999 26.1128 12.6464C26.1128 12.9756 26.0537 13.2868 25.9445 13.5708C25.8308 13.8549 25.6671 14.1075 25.4532 14.3239C25.2395 14.5405 24.9802 14.7162 24.6755 14.8426C24.3708 14.9688 24.025 15.0319 23.6385 15.0319C23.2519 15.0319 22.9153 14.9824 22.6333 14.8876C22.3467 14.793 22.092 14.6847 21.8645 14.563C21.6371 14.4412 21.4415 14.333 21.2824 14.2338C21.1049 14.1256 20.9412 14.0714 20.7956 14.0714C20.5409 14.0714 20.3499 14.1661 20.2271 14.3465C20.1133 14.5178 20.0542 14.7208 20.0542 14.9463C20.0542 15.1943 20.1679 15.4152 20.3908 15.6137C20.6001 15.7986 20.8821 15.961 21.2232 16.1008C21.5598 16.236 21.9464 16.3442 22.3648 16.4209C22.7833 16.4976 23.2063 16.5336 23.6203 16.5336C24.307 16.5336 24.9256 16.4254 25.4624 16.2135C25.9991 16.0015 26.454 15.7084 26.8178 15.3477C27.1817 14.9869 27.4637 14.563 27.6547 14.0895C27.8459 13.616 27.9413 13.1154 27.9413 12.6058C27.9413 11.9068 27.7867 11.3341 27.4864 10.9057C27.1999 10.4727 26.8224 10.1255 26.3767 9.86396Z" fill="#002030"/>
<path d="M40.4766 7.09492C40.2946 7.09492 40.1217 7.14454 39.958 7.24374C39.7851 7.34746 39.6441 7.56844 39.5304 7.92469L37.6155 13.8863L35.737 8.14566C35.6278 7.81196 35.5187 7.55491 35.4004 7.38354C35.2731 7.19414 35.0501 7.09492 34.7362 7.09492C34.4225 7.09492 34.1996 7.18962 34.0722 7.38354C33.9539 7.55491 33.8448 7.80744 33.7356 8.14566L31.8571 13.8863L29.9422 7.92469C29.8285 7.57294 29.6921 7.34746 29.5146 7.24374C29.3509 7.14454 29.1735 7.09492 28.9962 7.09492C28.6959 7.09492 28.4822 7.18061 28.3547 7.35197C28.232 7.51432 28.1683 7.68118 28.1683 7.84803C28.1683 7.93371 28.1819 8.03292 28.2047 8.13213C28.2275 8.22684 28.2593 8.33506 28.2956 8.45231L30.8564 15.6857C30.9701 15.9969 31.093 16.2133 31.2431 16.3351C31.3931 16.4613 31.5933 16.529 31.839 16.529C32.0709 16.529 32.2664 16.4659 32.4212 16.3395C32.5757 16.2133 32.7032 16.0014 32.8032 15.6857L34.7362 9.79166L36.6649 15.6857C36.7649 16.0014 36.8877 16.2133 37.047 16.3395C37.2016 16.4659 37.4017 16.529 37.6292 16.529C37.8748 16.529 38.0703 16.4659 38.2251 16.3395C38.3751 16.2133 38.4979 16.0014 38.6116 15.6902L41.1724 8.45683C41.1997 8.372 41.222 8.28971 41.243 8.21191L41.2437 8.20899C41.2504 8.1844 41.2569 8.16026 41.2634 8.13664C41.2862 8.03292 41.2997 7.93822 41.2997 7.85254C41.2997 7.68569 41.2361 7.51883 41.1133 7.35649C40.9904 7.18061 40.7721 7.09492 40.4766 7.09492Z" fill="#002030"/>
<path fill-rule="evenodd" clip-rule="evenodd" d="M49.2638 7.09492C49.4367 7.09492 49.6141 7.15806 49.7914 7.27982C49.978 7.41059 50.0736 7.62706 50.0781 7.92018V15.7082C50.0781 16.0014 49.978 16.2133 49.7914 16.3441C49.6096 16.4659 49.4321 16.529 49.2638 16.529C49.082 16.529 48.9 16.4659 48.7271 16.3395C48.5452 16.2088 48.4543 15.9924 48.4543 15.7037V15.2979C48.1404 15.6902 47.7857 15.9878 47.4035 16.1863C46.9669 16.4163 46.4802 16.529 45.9663 16.529C45.2976 16.529 44.6973 16.3982 44.1787 16.1367C43.6602 15.8796 43.2189 15.5234 42.8596 15.0859C42.5049 14.6485 42.2273 14.1389 42.0455 13.5753C41.8589 13.0115 41.768 12.4208 41.768 11.812C41.768 11.2032 41.8635 10.6124 42.0455 10.0487C42.2273 9.48501 42.5049 8.97542 42.8596 8.53799C43.2189 8.10056 43.6602 7.74882 44.1787 7.48726C44.6973 7.22571 45.3021 7.09492 45.9663 7.09492C46.5166 7.09492 47.0033 7.20766 47.4126 7.42864C47.7719 7.62254 48.1222 7.89313 48.4543 8.23134V7.93371C48.4543 7.64059 48.5452 7.42413 48.7271 7.28884C48.9 7.15806 49.082 7.09492 49.2638 7.09492ZM44.82 14.7387C45.1339 14.9281 45.516 15.0272 45.9663 15.0272C46.4256 15.0272 46.8122 14.9281 47.1171 14.7387C47.4218 14.5448 47.6811 14.2877 47.8766 13.9811C48.0768 13.6699 48.2178 13.3227 48.3042 12.9484C48.3861 12.5696 48.4315 12.1863 48.4315 11.812C48.4315 11.4377 48.3907 11.0543 48.3042 10.6755C48.2178 10.3012 48.0768 9.95401 47.8766 9.64284C47.6811 9.33169 47.4264 9.07914 47.1171 8.88524C46.8122 8.69583 46.4256 8.59662 45.9663 8.59662C45.516 8.59662 45.1293 8.69132 44.82 8.88524C44.5061 9.07914 44.247 9.33619 44.0514 9.64284C43.8512 9.94949 43.7102 10.3012 43.6238 10.6755C43.5419 11.0589 43.4964 11.4377 43.4964 11.812C43.4964 12.1863 43.5374 12.5696 43.6238 12.9484C43.7102 13.3227 43.8512 13.6699 44.0514 13.9811C44.247 14.2923 44.5061 14.5448 44.82 14.7387Z" fill="#002030"/>
<path d="M57.0876 11.7264C56.7192 11.5144 56.3099 11.3295 55.8732 11.1762C55.4457 11.0274 55.0409 10.8741 54.677 10.7208C54.3177 10.5719 54.013 10.4051 53.7764 10.2337C53.5535 10.0714 53.4444 9.87746 53.4444 9.64746C53.4444 9.29571 53.5854 9.03867 53.881 8.87181C54.1857 8.69594 54.5587 8.60576 54.9863 8.60576C55.3456 8.60576 55.6412 8.65084 55.8642 8.74554C56.0915 8.84024 56.2872 8.94396 56.4418 9.05671C56.6009 9.16946 56.7511 9.27768 56.8875 9.37689C57.0376 9.48512 57.2059 9.54375 57.3878 9.54375C57.6471 9.54375 57.8472 9.47159 57.9837 9.32278C58.1157 9.17846 58.1838 9.01161 58.1838 8.82672C58.1838 8.56066 58.0701 8.31714 57.8472 8.10068C57.6381 7.89774 57.3696 7.72187 57.0604 7.57306C56.7511 7.42424 56.4053 7.31149 56.0325 7.22581C55.6594 7.14464 55.3047 7.10406 54.9863 7.10406C54.5951 7.10406 54.1994 7.15818 53.8128 7.26641C53.4261 7.37463 53.0714 7.54149 52.7666 7.76246C52.4573 7.98343 52.2072 8.26302 52.0116 8.58771C51.816 8.91691 51.7205 9.30023 51.7205 9.73315C51.7205 10.1706 51.8523 10.5449 52.1116 10.8515C52.3618 11.1447 52.6802 11.4062 53.0578 11.6182C53.4307 11.8301 53.8355 12.0195 54.2721 12.1819C54.7043 12.3442 55.1046 12.5111 55.4684 12.6779C55.8277 12.8448 56.1325 13.0252 56.369 13.2236C56.5965 13.4085 56.7056 13.634 56.7056 13.9C56.7056 14.1796 56.56 14.4321 56.2553 14.6666C55.9506 14.9056 55.523 15.0274 54.9863 15.0274C54.5768 15.0274 54.2313 14.9733 53.9492 14.8606C53.6627 14.7478 53.4079 14.6171 53.1942 14.4773C52.9758 14.3329 52.7802 14.2022 52.6165 14.0895C52.4391 13.9631 52.2481 13.9 52.057 13.9C51.8706 13.9 51.6977 13.9722 51.5522 14.1165C51.4066 14.2608 51.3339 14.4502 51.3339 14.6846C51.3339 14.9012 51.4339 15.1266 51.6295 15.3521C51.816 15.5686 52.0752 15.7669 52.4028 15.9383C52.7256 16.1097 53.1032 16.254 53.5354 16.3622C53.9674 16.475 54.436 16.5291 54.9363 16.5291C55.3774 16.5291 55.8096 16.4704 56.2235 16.3577C56.6419 16.2405 57.0195 16.0646 57.3424 15.8256C57.6654 15.5866 57.9337 15.289 58.1292 14.9327C58.3294 14.5764 58.4295 14.1481 58.4295 13.661C58.4295 13.201 58.2975 12.8132 58.0384 12.502C57.7836 12.1999 57.4652 11.9383 57.0876 11.7264Z" fill="#002030"/>
<path fill-rule="evenodd" clip-rule="evenodd" d="M9.37953 3.92453C9.7022 4.94971 10.6693 5.6969 11.8075 5.6969C13.2085 5.6969 14.3501 4.565 14.3501 3.17605C14.3501 1.78709 13.2085 0.655182 11.8075 0.655182C10.6166 0.655182 9.61304 1.47315 9.33891 2.57166H4.18914C1.88305 2.57166 0.00452388 4.43411 0.00452388 6.72048C0.00452388 9.00684 1.88305 10.8693 4.18914 10.8693H4.65395C4.94301 11.9464 5.93603 12.7435 7.11159 12.7435C8.28717 12.7435 9.28019 11.9464 9.56926 10.8693H10.1204C11.6759 10.8693 12.9404 12.123 12.9404 13.6653C12.9404 15.2076 11.6759 16.4612 10.1204 16.4612H4.95105C4.61026 15.4667 3.6587 14.7483 2.5426 14.7483C1.14167 14.7483 0 15.8801 0 17.2692C0 18.6581 1.14167 19.79 2.5426 19.79C3.7549 19.79 4.77308 18.9424 5.02529 17.8141H10.1204C12.4264 17.8141 14.3049 15.9516 14.3049 13.6653C14.3049 11.3789 12.4264 9.51643 10.1204 9.51643H9.5525C9.2434 8.46956 8.26543 7.70174 7.11159 7.70174C5.95777 7.70174 4.9798 8.46956 4.67071 9.51643H4.18914C2.63354 9.51643 1.36907 8.26276 1.36907 6.72048C1.36907 5.1782 2.63354 3.92453 4.18914 3.92453H9.37953ZM11.8075 2.01254C11.1571 2.01254 10.6295 2.53566 10.6295 3.18053C10.6295 3.82539 11.1571 4.34851 11.8075 4.34851C12.4579 4.34851 12.9856 3.82539 12.9856 3.18053C12.9856 2.53566 12.4579 2.01254 11.8075 2.01254ZM5.93354 10.2271C5.93354 9.58221 6.46116 9.05909 7.11159 9.05909C7.76203 9.05909 8.28966 9.58221 8.28966 10.2271C8.28966 10.872 7.76203 11.3951 7.11159 11.3951C6.46116 11.3951 5.93354 10.872 5.93354 10.2271ZM1.36454 17.2736C1.36454 16.6287 1.89216 16.1056 2.5426 16.1056C3.19303 16.1056 3.72067 16.6287 3.72067 17.2736C3.72067 17.9185 3.19303 18.4416 2.5426 18.4416C1.89216 18.4416 1.36454 17.9185 1.36454 17.2736Z" fill="#3CE35F"/>
<path d="M71.6854 16.1266L73.1343 7.39937H78.1968L78.0775 8.11528H73.8118L73.2664 11.4008H77.2635L77.1442 12.1167H73.1471L72.6016 15.4107H76.9525L76.8331 16.1266H71.6854ZM78.8232 16.1266H77.988L82.6116 7.39937H83.4638L85.1897 16.1266H84.3544L82.9013 8.43489H82.8459L78.8232 16.1266ZM79.9823 12.7815H84.3118L84.1925 13.4974H79.863L79.9823 12.7815ZM86.6854 16.1266L88.1343 7.39937H90.951C91.5704 7.39937 92.0689 7.51017 92.4468 7.73176C92.8275 7.95335 93.0902 8.26159 93.2351 8.65648C93.3829 9.04852 93.4155 9.50023 93.3331 10.0116C93.2479 10.5173 93.0661 10.9647 92.7877 11.3539C92.5121 11.7431 92.1485 12.0485 91.6968 12.2701C91.2451 12.4889 90.7124 12.5982 90.0988 12.5982H87.7039L87.8275 11.8695H90.201C90.6584 11.8695 91.0505 11.7943 91.3772 11.6437C91.7039 11.4931 91.9652 11.2786 92.1613 11.0002C92.3573 10.7218 92.4866 10.3923 92.5491 10.0116C92.6116 9.62807 92.5902 9.29426 92.4851 9.01017C92.3829 8.72608 92.1925 8.50591 91.9141 8.34966C91.6385 8.19341 91.2706 8.11528 90.8104 8.11528H88.8118L87.4823 16.1266H86.6854ZM91.1854 12.1891L92.6812 16.1266H91.765L90.2948 12.1891H91.1854ZM102.501 7.39937L101.053 16.1266H100.277L96.3353 8.81841H96.2671L95.0526 16.1266H94.2557L95.7046 7.39937H96.4759L100.43 14.7161H100.499L101.717 7.39937H102.501Z" fill="#26BC57"/>
</svg>