<svg width="126" height="36" viewBox="0 0 126 36" fill="none" xmlns="http://www.w3.org/2000/svg">
<path d="M49.3149 17.2212C48.4898 16.7406 47.5801 16.3442 46.602 16.0407C45.6495 15.7455 44.7566 15.4251 43.9403 15.0878C43.1409 14.7589 42.4691 14.3541 41.9333 13.8903C41.4232 13.4434 41.1678 12.8363 41.1678 12.052C41.1678 11.1413 41.491 10.4161 42.1545 9.85115C42.8177 9.28616 43.6767 8.99945 44.697 8.99945C45.3944 8.99945 45.9641 9.07536 46.3979 9.2187C46.8317 9.36206 47.2059 9.53915 47.512 9.72465C47.8266 9.91861 48.1073 10.0957 48.3453 10.2475C48.609 10.4161 48.9321 10.5005 49.2893 10.5005C49.7059 10.5005 50.0545 10.3571 50.3181 10.0704C50.5735 9.79211 50.7094 9.45482 50.7094 9.05849C50.7094 8.64529 50.531 8.24896 50.1736 7.88637C49.8336 7.54063 49.3828 7.23705 48.8216 6.98409C48.2772 6.73952 47.6479 6.54559 46.9508 6.40223C46.2534 6.25887 45.5306 6.19141 44.7993 6.19141C43.7106 6.19141 42.7157 6.37694 41.8484 6.74797C40.9809 7.11901 40.2324 7.59122 39.6288 8.17308C39.0249 8.74649 38.5572 9.40423 38.234 10.1041C37.9108 10.8125 37.7409 11.5208 37.7409 12.2038C37.7409 13.4687 38.0299 14.4975 38.5914 15.2564C39.1525 16.0069 39.8582 16.6225 40.6916 17.0947C41.5166 17.5585 42.4266 17.938 43.396 18.2415C44.3484 18.5367 45.2414 18.8571 46.0579 19.1944C46.8571 19.5233 47.5291 19.9449 48.0563 20.4424C48.5665 20.9147 48.8216 21.5893 48.8216 22.4241C48.8216 23.0397 48.711 23.6216 48.5069 24.1527C48.2943 24.684 47.9882 25.1562 47.5884 25.5609C47.1888 25.9659 46.704 26.2946 46.1343 26.5308C45.5645 26.7668 44.9182 26.8849 44.1954 26.8849C43.4726 26.8849 42.8433 26.7922 42.3161 26.615C41.7803 26.4381 41.304 26.2355 40.8788 26.008C40.4536 25.7802 40.0879 25.5779 39.7904 25.3924C39.4586 25.1901 39.1525 25.0887 38.8804 25.0887C38.4041 25.0887 38.047 25.2659 37.8173 25.6033C37.6047 25.9235 37.4941 26.303 37.4941 26.7247C37.4941 27.1884 37.7067 27.6016 38.1234 27.9727C38.5147 28.3186 39.042 28.6221 39.6798 28.8835C40.3091 29.1364 41.0319 29.3388 41.8142 29.4821C42.5965 29.6256 43.3874 29.6929 44.1615 29.6929C45.4454 29.6929 46.602 29.4906 47.6055 29.0943C48.609 28.6979 49.4594 28.1499 50.1397 27.4753C50.82 26.8007 51.3473 26.008 51.7044 25.1226C52.0617 24.2371 52.2402 23.3011 52.2402 22.3482C52.2402 21.0412 51.9512 19.9702 51.3897 19.1691C50.8539 18.3596 50.1482 17.7103 49.3149 17.2212Z" fill="#003149"/>
<path d="M75.678 12.04C75.3377 12.04 75.0145 12.1328 74.7084 12.3183C74.3852 12.5123 74.1216 12.9255 73.909 13.5916L70.3288 24.7394L66.8167 14.0048C66.6126 13.3808 66.4086 12.9002 66.1874 12.5797C65.9494 12.2256 65.5325 12.04 64.9457 12.04C64.3591 12.04 63.9424 12.2171 63.7042 12.5797C63.483 12.9002 63.279 13.3724 63.0749 14.0048L59.5628 24.7394L55.9826 13.5916C55.77 12.9339 55.5149 12.5123 55.1832 12.3183C54.8771 12.1328 54.5453 12.04 54.2138 12.04C53.6524 12.04 53.2528 12.2003 53.0146 12.5207C52.7851 12.8243 52.666 13.1363 52.666 13.4483C52.666 13.6085 52.6914 13.794 52.7341 13.9795C52.7766 14.1566 52.8361 14.359 52.904 14.5783L57.6918 28.1041C57.9044 28.686 58.1341 29.0907 58.4148 29.3185C58.6953 29.5545 59.0695 29.6811 59.5289 29.6811C59.9624 29.6811 60.328 29.5629 60.6173 29.3267C60.9063 29.0907 61.1446 28.6945 61.3315 28.1041L64.9457 17.0827L68.5515 28.1041C68.7385 28.6945 68.9682 29.0907 69.266 29.3267C69.555 29.5629 69.9292 29.6811 70.3544 29.6811C70.8136 29.6811 71.1792 29.5629 71.4685 29.3267C71.749 29.0907 71.9787 28.6945 72.1913 28.1126L76.979 14.5867C77.0469 14.3759 77.0979 14.1735 77.1492 13.988C77.1916 13.794 77.217 13.6169 77.217 13.4567C77.217 13.1447 77.0982 12.8327 76.8685 12.5291C76.6388 12.2003 76.2306 12.04 75.678 12.04Z" fill="#003149"/>
<path d="M93.0932 12.3858C92.7617 12.1581 92.4299 12.04 92.1068 12.04C91.7667 12.04 91.4265 12.1581 91.1033 12.4027C90.7632 12.6556 90.5931 13.0604 90.5931 13.6085V14.1651C89.9724 13.5326 89.3174 13.0267 88.6457 12.6641C87.8804 12.2509 86.9704 12.04 85.9415 12.04C84.6998 12.04 83.5689 12.2846 82.5993 12.7737C81.63 13.2628 80.805 13.9205 80.1332 14.7385C79.47 15.5564 78.951 16.5093 78.611 17.5634C78.2707 18.6175 78.0923 19.7221 78.0923 20.8605C78.0923 21.9989 78.2622 23.1036 78.611 24.1578C78.951 25.2116 79.47 26.1646 80.1332 26.9825C80.805 27.8006 81.63 28.4667 82.5993 28.9474C83.5689 29.4363 84.6913 29.6811 85.9415 29.6811C86.9023 29.6811 87.8123 29.4702 88.6286 29.0401C89.3431 28.6691 90.0063 28.1126 90.5931 27.3789V28.1378C90.5931 28.6775 90.7632 29.0822 91.1033 29.3267C91.4265 29.5629 91.7667 29.6811 92.1068 29.6811C92.4214 29.6811 92.7531 29.5629 93.0932 29.3352C93.442 29.0907 93.6292 28.6945 93.6292 28.1462V13.5832C93.6207 13.0351 93.442 12.6303 93.0932 12.3858ZM85.9415 26.8728C85.0996 26.8728 84.3852 26.6874 83.7984 26.3333C83.2115 25.9707 82.727 25.4985 82.3613 24.9166C81.9871 24.3347 81.7235 23.6855 81.5619 22.9855C81.4003 22.2772 81.3237 21.5604 81.3237 20.8605C81.3237 20.1606 81.4089 19.4523 81.5619 18.7355C81.7235 18.0356 81.9871 17.3779 82.3613 16.8044C82.727 16.231 83.2115 15.7504 83.7984 15.3878C84.3766 15.0252 85.0996 14.8481 85.9415 14.8481C86.8003 14.8481 87.5231 15.0336 88.093 15.3878C88.6713 15.7504 89.1475 16.2226 89.5132 16.8044C89.8874 17.3863 90.151 18.0356 90.3126 18.7355C90.4742 19.4438 90.5506 20.1606 90.5506 20.8605C90.5506 21.5604 90.4657 22.2772 90.3126 22.9855C90.151 23.6855 89.8874 24.3347 89.5132 24.9166C89.1475 25.49 88.6628 25.9707 88.093 26.3333C87.5231 26.6874 86.8003 26.8728 85.9415 26.8728Z" fill="#003149"/>
<path d="M106.734 20.702C106.045 20.3056 105.28 19.9599 104.463 19.6732C103.664 19.3949 102.907 19.1082 102.227 18.8215C101.555 18.5432 100.985 18.2312 100.543 17.9108C100.127 17.6072 99.9224 17.2446 99.9224 16.8145C99.9224 16.1568 100.186 15.6761 100.739 15.3641C101.308 15.0353 102.006 14.8666 102.805 14.8666C103.477 14.8666 104.03 14.9509 104.447 15.128C104.872 15.3051 105.237 15.4991 105.526 15.7099C105.824 15.9207 106.105 16.1231 106.36 16.3086C106.641 16.511 106.955 16.6206 107.295 16.6206C107.78 16.6206 108.154 16.4857 108.409 16.2074C108.656 15.9376 108.783 15.6256 108.783 15.2798C108.783 14.7823 108.571 14.3269 108.154 13.9222C107.763 13.5427 107.261 13.2138 106.683 12.9356C106.105 12.6573 105.458 12.4465 104.761 12.2863C104.064 12.1345 103.401 12.0586 102.805 12.0586C102.074 12.0586 101.334 12.1598 100.611 12.3622C99.8883 12.5645 99.225 12.8765 98.6553 13.2897C98.077 13.7029 97.6093 14.2257 97.2437 14.8329C96.878 15.4485 96.6993 16.1653 96.6993 16.9748C96.6993 17.7927 96.9459 18.4926 97.4307 19.0661C97.8984 19.6142 98.4937 20.1033 99.1996 20.4996C99.8968 20.8959 100.654 21.2501 101.47 21.5537C102.278 21.8572 103.026 22.1692 103.707 22.4812C104.378 22.7933 104.948 23.1305 105.39 23.5016C105.816 23.8473 106.02 24.2689 106.02 24.7664C106.02 25.2892 105.748 25.7614 105.178 26.2C104.608 26.6468 103.809 26.8746 102.805 26.8746C102.04 26.8746 101.394 26.7734 100.866 26.5626C100.331 26.3518 99.8543 26.1073 99.4547 25.8459C99.0464 25.576 98.6807 25.3315 98.3746 25.1207C98.0429 24.8845 97.6858 24.7664 97.3286 24.7664C96.9801 24.7664 96.6569 24.9014 96.3847 25.1713C96.1125 25.4412 95.9766 25.7953 95.9766 26.2337C95.9766 26.6386 96.1635 27.06 96.5292 27.4817C96.878 27.8866 97.3626 28.2574 97.975 28.5779C98.5787 28.8984 99.2846 29.1682 100.093 29.3706C100.9 29.5814 101.776 29.6826 102.712 29.6826C103.537 29.6826 104.345 29.5729 105.118 29.3621C105.901 29.1431 106.607 28.8141 107.21 28.3671C107.814 27.9202 108.316 27.3638 108.681 26.6974C109.056 26.0313 109.243 25.2304 109.243 24.3195C109.243 23.4594 108.996 22.7342 108.512 22.1524C108.035 21.5874 107.44 21.0983 106.734 20.702Z" fill="#003149"/>
<path d="M125.238 15.5577C124.847 14.7229 124.346 14.0398 123.733 13.517C123.13 12.9942 122.449 12.6147 121.718 12.3871C120.995 12.1594 120.272 12.0413 119.583 12.0413C118.69 12.0413 117.798 12.2184 116.93 12.5726C116.156 12.8846 115.467 13.399 114.872 14.0905V5.96147C114.872 5.43022 114.728 5.00858 114.43 4.70502C114.132 4.393 113.741 4.24121 113.256 4.24121C112.772 4.24121 112.38 4.393 112.083 4.69658C111.794 5.00015 111.641 5.41335 111.641 5.92773V28.0042C111.641 28.5185 111.785 28.9317 112.083 29.2353C112.38 29.539 112.772 29.6908 113.256 29.6908C113.741 29.6908 114.132 29.5388 114.43 29.2437C114.728 28.9487 114.872 28.544 114.872 28.0294V18.838C114.872 18.1297 114.991 17.5056 115.221 17.0081C115.451 16.5022 115.748 16.089 116.114 15.7854C116.479 15.4734 116.896 15.2373 117.355 15.0855C118.274 14.7819 119.209 14.7819 120.136 15.0855C120.595 15.2373 121.012 15.4734 121.378 15.7854C121.743 16.0974 122.041 16.5106 122.271 17.0081C122.5 17.5141 122.619 18.1297 122.619 18.838V28.0294C122.619 28.5355 122.772 28.9487 123.062 29.2437C123.359 29.5388 123.75 29.6908 124.235 29.6908C124.72 29.6908 125.111 29.5388 125.409 29.2437C125.706 28.9487 125.851 28.5355 125.851 28.0294V18.644C125.825 17.4298 125.63 16.3925 125.238 15.5577Z" fill="#003149"/>
<path fill-rule="evenodd" clip-rule="evenodd" d="M17.5363 6.11341C18.1396 8.0304 19.9477 9.4276 22.0758 9.4276C24.6951 9.4276 26.8295 7.31104 26.8295 4.71381C26.8295 2.11657 24.6951 0 22.0758 0C19.8492 0 17.9729 1.52953 17.4604 3.58365H7.83217C3.52062 3.58365 0.00845802 7.06628 0.00845802 11.3416C0.00845802 15.6169 3.52062 19.0996 7.83217 19.0996H8.70121C9.24164 21.1137 11.0982 22.6041 13.2961 22.6041C15.494 22.6041 17.3506 21.1137 17.8911 19.0996H18.9214C21.8298 19.0996 24.1939 21.4438 24.1939 24.3278C24.1939 27.2118 21.8298 29.556 18.9214 29.556H9.25668C8.61952 27.6962 6.84045 26.3529 4.75374 26.3529C2.1345 26.3529 0 28.4694 0 31.0668C0 33.664 2.1345 35.7805 4.75374 35.7805C7.02031 35.7805 8.92393 34.1955 9.39547 32.0856H18.9214C23.2329 32.0856 26.745 28.6031 26.745 24.3278C26.745 20.0524 23.2329 16.5698 18.9214 16.5698H17.8597C17.2818 14.6122 15.4534 13.1765 13.2961 13.1765C11.1389 13.1765 9.31043 14.6122 8.73254 16.5698H7.83217C4.92378 16.5698 2.55967 14.2255 2.55967 11.3416C2.55967 8.45767 4.92378 6.11341 7.83217 6.11341H17.5363ZM22.0758 2.53814C20.8597 2.53814 19.8732 3.51633 19.8732 4.72219C19.8732 5.92802 20.8597 6.90621 22.0758 6.90621C23.2918 6.90621 24.2784 5.92802 24.2784 4.72219C24.2784 3.51633 23.2918 2.53814 22.0758 2.53814ZM11.0936 17.8987C11.0936 16.6928 12.08 15.7146 13.2961 15.7146C14.5122 15.7146 15.4987 16.6928 15.4987 17.8987C15.4987 19.1045 14.5122 20.0827 13.2961 20.0827C12.08 20.0827 11.0936 19.1045 11.0936 17.8987ZM2.5512 31.0751C2.5512 29.8692 3.53766 28.8911 4.75374 28.8911C5.96981 28.8911 6.95632 29.8692 6.95632 31.0751C6.95632 32.2809 5.96981 33.2591 4.75374 33.2591C3.53766 33.2591 2.5512 32.2809 2.5512 31.0751Z" fill="#3CE35F"/>
</svg>
