<svg width="20" height="20" viewBox="0 0 20 20" fill="none" xmlns="http://www.w3.org/2000/svg">
<path d="M10 18.3333C14.6024 18.3333 18.3333 14.6024 18.3333 10C18.3333 5.39763 14.6024 1.66667 10 1.66667C5.39762 1.66667 1.66666 5.39763 1.66666 10C1.66666 14.6024 5.39762 18.3333 10 18.3333Z" stroke="#0D0D0D" stroke-width="1.5" stroke-linecap="round" stroke-linejoin="round"/>
<path d="M13.0303 8.6094C12.5032 7.4628 11.3446 6.66667 9.99998 6.66667C8.15903 6.66667 6.66665 8.15905 6.66665 10C6.66665 11.8409 8.15903 13.3333 9.99998 13.3333C11.2338 13.3333 12.311 12.663 12.8874 11.6667" stroke="#0D0D0D" stroke-width="1.5"/>
<path d="M10 6.66667V5" stroke="#0D0D0D" stroke-width="1.5" stroke-linecap="square" stroke-linejoin="round"/>
<path d="M10 15V13.3333" stroke="#0D0D0D" stroke-width="1.5" stroke-linecap="square" stroke-linejoin="round"/>
</svg>
