<svg width="24" height="24" viewBox="0 0 24 24" fill="none" xmlns="http://www.w3.org/2000/svg">
<path d="M13.8529 19.3916V17.7163C13.8529 16.8277 13.4999 15.9754 12.8716 15.3471C12.2432 14.7187 11.391 14.3657 10.5024 14.3657H5.47653C4.58791 14.3657 3.73568 14.7187 3.10733 15.3471C2.47898 15.9754 2.12598 16.8277 2.12598 17.7163V19.3916" stroke="#141414" stroke-width="1.88469" stroke-linecap="square" stroke-linejoin="round"/>
<path d="M7.98972 10.7011C9.84018 10.7011 11.3403 9.20102 11.3403 7.35056C11.3403 5.5001 9.84018 4 7.98972 4C6.13926 4 4.63916 5.5001 4.63916 7.35056C4.63916 9.20102 6.13926 10.7011 7.98972 10.7011Z" stroke="#141414" stroke-width="1.88469" stroke-linecap="round" stroke-linejoin="round"/>
<path d="M16.6974 11.469C18.2395 11.469 19.4895 10.2189 19.4895 8.6769C19.4895 7.13485 18.2395 5.88477 16.6974 5.88477C15.1554 5.88477 13.9053 7.13485 13.9053 8.6769C13.9053 10.2189 15.1554 11.469 16.6974 11.469Z" stroke="#141414" stroke-width="1.88469" stroke-linecap="round" stroke-linejoin="round"/>
<path fill-rule="evenodd" clip-rule="evenodd" d="M16.0193 20.3444H21.6432C22.1636 20.3444 22.5855 19.9225 22.5855 19.402V18.006C22.5855 17.0155 22.1921 16.0656 21.4917 15.3653C20.7914 14.6649 19.8415 14.2715 18.851 14.2715H14.7374C14.7484 14.2823 14.7593 14.2931 14.7702 14.304C15.2976 14.8313 15.6933 15.4658 15.9363 16.1562H18.851C19.3416 16.1562 19.8121 16.3511 20.159 16.698C20.5059 17.0449 20.7008 17.5154 20.7008 18.006V18.4597H16.2161V19.7215C16.2161 19.9533 16.1433 20.1681 16.0193 20.3444Z" fill="#141414"/>
</svg>
