<svg width="24" height="24" viewBox="0 0 24 24" fill="none" xmlns="http://www.w3.org/2000/svg">
<path d="M11.8072 15.046C13.3511 15.046 14.6026 13.7944 14.6026 12.2505C14.6026 10.7066 13.3511 9.45508 11.8072 9.45508C10.2633 9.45508 9.01172 10.7066 9.01172 12.2505C9.01172 13.7944 10.2633 15.046 11.8072 15.046Z" stroke="#141414" stroke-width="2" stroke-miterlimit="10" stroke-linecap="square"/>
<path d="M19.2629 12.25C19.2618 11.7132 19.203 11.1781 19.0877 10.6538L21.6166 8.73891L19.753 5.51109L16.8243 6.74668C16.0312 6.01958 15.0899 5.4731 14.0652 5.14489L13.672 2H9.94468L9.55145 5.14489C8.52678 5.4731 7.58545 6.01958 6.79234 6.74668L3.86364 5.51109L2 8.73891L4.52895 10.6538C4.29543 11.7051 4.29543 12.7949 4.52895 13.8462L2 15.7611L3.86364 18.9889L6.79234 17.7533C7.58545 18.4804 8.52678 19.0269 9.55145 19.3551L9.94468 22.5H13.672L14.0652 19.3551C15.0899 19.0269 16.0312 18.4804 16.8243 17.7533L19.753 18.9889L21.6166 15.7611L19.0877 13.8462C19.203 13.3219 19.2618 12.7868 19.2629 12.25V12.25Z" stroke="#141414" stroke-width="2" stroke-miterlimit="10" stroke-linecap="square"/>
</svg>
