<svg width="32" height="32" viewBox="0 0 32 32" fill="none" xmlns="http://www.w3.org/2000/svg">
<path d="M16.8396 27.0792L28.0905 15.8283C30.8546 13.0503 31.2574 8.50832 28.6461 5.60532C27.9912 4.87375 27.194 4.28339 26.3033 3.87031C25.4125 3.45722 24.4469 3.23009 23.4654 3.20279C22.4839 3.17549 21.5071 3.3486 20.5948 3.71153C19.6825 4.07446 18.8537 4.6196 18.1592 5.31363L16.0479 7.43879L14.2283 5.60532C11.4503 2.84122 6.90832 2.43842 4.00533 5.04972C3.27376 5.70461 2.6834 6.50179 2.27031 7.39254C1.85723 8.28329 1.6301 9.24891 1.6028 10.2304C1.5755 11.2119 1.7486 12.1887 2.11153 13.101C2.47447 14.0133 3.0196 14.8421 3.71364 15.5366L15.2562 27.0792C15.4668 27.2878 15.7514 27.4049 16.0479 27.4049C16.3444 27.4049 16.6289 27.2878 16.8396 27.0792Z" stroke="black" stroke-width="1.5" stroke-linecap="round" stroke-linejoin="round"/>
</svg>
