<svg width="20" height="20" viewBox="0 0 20 20" fill="none" xmlns="http://www.w3.org/2000/svg">
<path d="M13.334 18.3337H15.0006C15.4173 18.3337 15.834 18.167 16.1673 17.8337C16.5006 17.5003 16.6673 17.0837 16.6673 16.667V6.25032L12.084 1.66699H5.00065C4.58398 1.66699 4.16732 1.83366 3.83398 2.16699C3.50065 2.50033 3.33398 2.91699 3.33398 3.33366V5.83366" stroke="#0D0D0D" stroke-width="1.25" stroke-linecap="square" stroke-linejoin="round"/>
<path d="M11.666 1.66699V6.66699H16.666" stroke="#0D0D0D" stroke-width="1.25" stroke-linecap="round" stroke-linejoin="round"/>
<path d="M6.66602 18.333C9.42744 18.333 11.666 16.0944 11.666 13.333C11.666 10.5716 9.42744 8.33301 6.66602 8.33301C3.90459 8.33301 1.66602 10.5716 1.66602 13.333C1.66602 16.0944 3.90459 18.333 6.66602 18.333Z" stroke="#0D0D0D" stroke-width="1.25" stroke-linecap="round" stroke-linejoin="round"/>
<path d="M7.91602 14.5837L6.66602 13.542V11.667" stroke="#0D0D0D" stroke-width="1.25" stroke-linecap="round" stroke-linejoin="round"/>
</svg>
