<svg width="24" height="24" viewBox="0 0 24 24" fill="none" xmlns="http://www.w3.org/2000/svg">
<path d="M15.9999 8.57143H19.4999M15.9999 12H19.4999M15.9999 15.4286H19.4999M12.4999 16.5714C12.1429 15.8709 11.4114 15.4286 10.6123 15.4286H7.3876C6.58843 15.4286 5.85693 15.8709 5.49993 16.5714M3.1666 4H21.8333C22.1427 4 22.4394 4.12041 22.6582 4.33474C22.877 4.54906 22.9999 4.83975 22.9999 5.14286V18.8571C22.9999 19.1602 22.877 19.4509 22.6582 19.6653C22.4394 19.8796 22.1427 20 21.8333 20H3.1666C2.85718 20 2.56043 19.8796 2.34164 19.6653C2.12285 19.4509 1.99993 19.1602 1.99993 18.8571V5.14286C1.99993 4.83975 2.12285 4.54906 2.34164 4.33474C2.56043 4.12041 2.85718 4 3.1666 4ZM11.3333 9.71429C11.3333 10.3205 11.0874 10.9019 10.6498 11.3305C10.2123 11.7592 9.61877 12 8.99993 12C8.38109 12 7.7876 11.7592 7.35002 11.3305C6.91243 10.9019 6.6666 10.3205 6.6666 9.71429C6.6666 9.10808 6.91243 8.5267 7.35002 8.09804C7.7876 7.66939 8.38109 7.42857 8.99993 7.42857C9.61877 7.42857 10.2123 7.66939 10.6498 8.09804C11.0874 8.5267 11.3333 9.10808 11.3333 9.71429Z" stroke="#141414" stroke-width="2" stroke-linecap="round" stroke-linejoin="round"/>
</svg>
