<svg width="19" height="26" viewBox="0 0 19 26" fill="none" xmlns="http://www.w3.org/2000/svg">
<path fill-rule="evenodd" clip-rule="evenodd" d="M12.1931 4.57299C12.5862 5.96574 13.8035 6.99237 15.2509 7.01028C17.0324 7.03233 18.5031 5.51815 18.5264 3.63807C18.5497 1.75798 17.1169 0.20786 15.3354 0.185813C13.8209 0.167072 12.5311 1.25848 12.1641 2.7411L5.61534 2.66006C2.68279 2.62377 0.262765 5.11523 0.224466 8.21005C0.186167 11.3049 2.5438 13.8555 5.47634 13.8917L6.06743 13.8991C6.41696 15.3616 7.66639 16.4561 9.1613 16.4746C10.6562 16.4931 11.9324 15.4299 12.318 13.9764L13.0188 13.9851C14.997 14.0096 16.5839 15.7264 16.5581 17.8141C16.5323 19.9017 14.9033 21.5788 12.9251 21.5543L6.35157 21.473C5.93485 20.1214 4.73684 19.134 3.31754 19.1164C1.53604 19.0944 0.0652799 20.6085 0.0420119 22.4887C0.0187461 24.3688 1.45159 25.9188 3.23309 25.9409C4.77472 25.9599 6.08369 24.8286 6.42331 23.3053L12.9025 23.3855C15.835 23.4218 18.2549 20.9304 18.2932 17.8355C18.3315 14.7407 15.974 12.1901 13.0415 12.1538L12.3193 12.1449C11.9438 10.723 10.713 9.66828 9.24576 9.65012C7.77849 9.63197 6.52199 10.6559 6.1114 12.0681L5.49901 12.0605C3.52083 12.036 1.93387 10.3192 1.9597 8.23153C1.98554 6.1439 3.6145 4.46683 5.59268 4.49131L12.1931 4.57299ZM15.3126 2.02313C14.4855 2.01289 13.8058 2.71268 13.795 3.58558C13.7842 4.45846 14.4464 5.17486 15.2735 5.1851C16.1006 5.19533 16.7804 4.49554 16.7912 3.62266C16.802 2.74976 16.1398 2.03336 15.3126 2.02313ZM7.70538 13.0499C7.71618 12.177 8.39589 11.4772 9.22302 11.4874C10.0501 11.4977 10.7123 12.2141 10.7015 13.087C10.6907 13.9599 10.011 14.6596 9.18389 14.6494C8.35676 14.6392 7.69458 13.9228 7.70538 13.0499ZM1.77716 22.5161C1.78797 21.6432 2.46768 20.9435 3.2948 20.9537C4.12193 20.964 4.78415 21.6803 4.77334 22.5532C4.76254 23.4261 4.0828 24.1259 3.25567 24.1156C2.42855 24.1054 1.76636 23.3891 1.77716 22.5161Z" fill="white"/>
</svg>
