<svg width="20" height="20" viewBox="0 0 20 20" fill="none" xmlns="http://www.w3.org/2000/svg">
<path d="M3.33398 1.66699V18.3337L5.00065 17.5003L6.66732 18.3337L8.33398 17.5003L10.0007 18.3337L11.6673 17.5003L13.334 18.3337L15.0007 17.5003L16.6673 18.3337V1.66699L15.0007 2.50033L13.334 1.66699L11.6673 2.50033L10.0007 1.66699L8.33398 2.50033L6.66732 1.66699L5.00065 2.50033L3.33398 1.66699Z" stroke="#0D0D0D" stroke-width="1.65279" stroke-linecap="round" stroke-linejoin="round"/>
<path d="M13.3327 6.66699H8.33268C7.89065 6.66699 7.46673 6.84259 7.15417 7.15515C6.84161 7.46771 6.66602 7.89163 6.66602 8.33366C6.66602 8.77569 6.84161 9.19961 7.15417 9.51217C7.46673 9.82473 7.89065 10.0003 8.33268 10.0003H11.666C12.108 10.0003 12.532 10.1759 12.8445 10.4885C13.1571 10.801 13.3327 11.225 13.3327 11.667C13.3327 12.109 13.1571 12.5329 12.8445 12.8455C12.532 13.1581 12.108 13.3337 11.666 13.3337H6.66602" stroke="#0D0D0D" stroke-width="1.65279" stroke-linecap="square" stroke-linejoin="round"/>
<path d="M10 14.1663V5.83301" stroke="#0D0D0D" stroke-width="1.65279" stroke-linecap="square" stroke-linejoin="round"/>
</svg>
