<svg width="109" height="112" viewBox="0 0 109 112" fill="none" xmlns="http://www.w3.org/2000/svg">
<mask id="path-1-inside-1_22836_105" fill="white">
<path fill-rule="evenodd" clip-rule="evenodd" d="M54.602 4.84185C57.1134 4.84185 59.1493 2.70207 59.1493 0.0625253C59.1493 0.0419785 59.1492 0.021462 59.149 0.000976562H104.205C106.853 0.000976562 109 2.14793 109 4.79633V65C106.454 65.0005 104.391 67.1401 104.391 69.7793C104.391 72.4186 106.454 74.5581 109 74.5586V106.966C109 109.614 106.853 111.761 104.205 111.761H4.79535C2.14695 111.761 0 109.614 0 106.966V74.5586H0.000896931C2.54708 74.5586 4.61117 72.4189 4.61117 69.7793C4.61117 67.1398 2.54708 65 0.000896931 65H0V4.79632C0 2.14792 2.14695 0.000976562 4.79535 0.000976562H50.0551C50.0548 0.021462 50.0547 0.0419785 50.0547 0.0625253C50.0547 2.70207 52.0906 4.84185 54.602 4.84185Z"/>
</mask>
<rect x="0" y="0" width="109" height="112" fill="transparent" mask="url(#path-1-inside-1_22836_105)"/>
<path d="M59.149 0.000976562V-1.99902H57.125L57.1491 0.0248104L59.149 0.000976562ZM109 65L109 67L111 66.9996V65H109ZM109 74.5586H111V72.559L109 72.5586L109 74.5586ZM0 74.5586V72.5586H-2V74.5586H0ZM0 65H-2V67H0V65ZM50.0551 0.000976562L52.0549 0.0248104L52.079 -1.99902H50.0551V0.000976562ZM57.1493 0.0625253C57.1493 1.69245 55.9162 2.84185 54.602 2.84185V6.84185C58.3106 6.84185 61.1493 3.71169 61.1493 0.0625253H57.1493ZM57.1491 0.0248104C57.1492 0.0375777 57.1493 0.0501463 57.1493 0.0625253H61.1493C61.1493 0.0338107 61.1491 0.00534628 61.1488 -0.0228573L57.1491 0.0248104ZM59.149 2.00098H104.205V-1.99902H59.149V2.00098ZM104.205 2.00098C105.748 2.00098 107 3.2525 107 4.79633H111C111 1.04336 107.958 -1.99902 104.205 -1.99902V2.00098ZM107 4.79633V65H111V4.79633H107ZM109 63C105.282 63.0007 102.391 66.1041 102.391 69.7793H106.391C106.391 68.176 107.626 67.0003 109 67L109 63ZM102.391 69.7793C102.391 73.4545 105.282 76.5579 109 76.5586L109 72.5586C107.626 72.5584 106.391 71.3826 106.391 69.7793H102.391ZM107 74.5586V106.966H111V74.5586H107ZM107 106.966C107 108.509 105.748 109.761 104.205 109.761V113.761C107.958 113.761 111 110.719 111 106.966H107ZM104.205 109.761H4.79535V113.761H104.205V109.761ZM4.79535 109.761C3.25152 109.761 2 108.509 2 106.966H-2C-2 110.719 1.04238 113.761 4.79535 113.761V109.761ZM2 106.966V74.5586H-2V106.966H2ZM0 76.5586H0.000896931V72.5586H0V76.5586ZM0.000896931 76.5586C3.71893 76.5586 6.61117 73.4549 6.61117 69.7793H2.61117C2.61117 71.3828 1.37523 72.5586 0.000896931 72.5586V76.5586ZM6.61117 69.7793C6.61117 66.1037 3.71892 63 0.000896931 63V67C1.37523 67 2.61117 68.1759 2.61117 69.7793H6.61117ZM0.000896931 63H0V67H0.000896931V63ZM2 65V4.79632H-2V65H2ZM2 4.79632C2 3.2525 3.25152 2.00098 4.79535 2.00098V-1.99902C1.04239 -1.99902 -2 1.04335 -2 4.79632H2ZM4.79535 2.00098H50.0551V-1.99902H4.79535V2.00098ZM52.0547 0.0625253C52.0547 0.0501463 52.0548 0.0375777 52.0549 0.0248104L48.0552 -0.0228573C48.0549 0.00534628 48.0547 0.0338107 48.0547 0.0625253H52.0547ZM54.602 2.84185C53.2878 2.84185 52.0547 1.69245 52.0547 0.0625253H48.0547C48.0547 3.71169 50.8934 6.84185 54.602 6.84185V2.84185Z" fill="#141414" mask="url(#path-1-inside-1_22836_105)"/>
<rect x="7" y="69" width="6" height="2" rx="1" fill="#141414"/>
<rect x="17.7778" y="69" width="5" height="2" rx="1" fill="#141414"/>
<rect x="27.5556" y="69" width="5" height="2" rx="1" fill="#141414"/>
<rect x="37.3333" y="69" width="5" height="2" rx="1" fill="#141414"/>
<rect x="47.1111" y="69" width="5" height="2" rx="1" fill="#141414"/>
<rect x="56.8889" y="69" width="5" height="2" rx="1" fill="#141414"/>
<rect x="66.6667" y="69" width="5" height="2" rx="1" fill="#141414"/>
<rect x="76.4444" y="69" width="5" height="2" rx="1" fill="#141414"/>
<rect x="86.2222" y="69" width="5" height="2" rx="1" fill="#141414"/>
<rect x="96" y="69" width="6" height="2" rx="1" fill="#141414"/>
</svg>