<svg width="44" height="44" viewBox="0 0 44 44" fill="none" xmlns="http://www.w3.org/2000/svg">
<rect width="44" height="44" rx="22" fill="#D2AAEC"/>
<path d="M26.3188 20.7476H25.3545C24.9652 19.5677 23.8691 18.7172 22.5575 18.7172C21.2458 18.7172 20.1497 19.5737 19.7604 20.7476H19.2633C17.4964 20.7476 16.0589 19.3101 16.0589 17.5432C16.0589 15.7764 17.4964 14.3389 19.2633 14.3389H25.6121C26.0014 15.5248 27.0974 16.3873 28.4151 16.3873C30.0502 16.3873 31.3739 15.0636 31.3739 13.4285C31.3739 11.7934 30.0502 10.4697 28.4151 10.4697C27.1094 10.4697 26.0193 11.3202 25.624 12.4882H18.9398C16.1548 12.4882 13.8848 14.7582 13.8848 17.5432C13.8848 20.3283 16.1548 22.5983 18.9398 22.5983H19.7604C20.1497 23.7782 21.2458 24.6287 22.5575 24.6287C23.8691 24.6287 24.9652 23.7723 25.3545 22.5983H25.9954C27.7623 22.5983 29.1997 24.0358 29.1997 25.8027C29.1997 27.5696 27.7623 29.007 25.9954 29.007H19.6406C19.2513 27.8271 18.1552 26.9766 16.8435 26.9766C15.2084 26.9766 13.8848 28.3003 13.8848 29.9354C13.8848 31.5705 15.2084 32.8942 16.8435 32.8942C18.1552 32.8942 19.2513 32.0377 19.6406 30.8637H26.3188C29.1099 30.8637 31.3739 28.5937 31.3739 25.8087C31.3739 23.0236 29.1039 20.7536 26.3188 20.7536V20.7476ZM28.4151 12.3265C29.026 12.3265 29.5232 12.8236 29.5232 13.4345C29.5232 14.0454 29.026 14.5425 28.4151 14.5425C27.8042 14.5425 27.3071 14.0454 27.3071 13.4345C27.3071 12.8236 27.8042 12.3265 28.4151 12.3265ZM22.5575 22.784C21.9465 22.784 21.4494 22.2869 21.4494 21.676C21.4494 21.065 21.9465 20.5679 22.5575 20.5679C23.1684 20.5679 23.6655 21.065 23.6655 21.676C23.6655 22.2869 23.1684 22.784 22.5575 22.784ZM16.8435 31.0434C16.2326 31.0434 15.7355 30.5463 15.7355 29.9354C15.7355 29.3245 16.2326 28.8273 16.8435 28.8273C17.4545 28.8273 17.9516 29.3245 17.9516 29.9354C17.9516 30.5463 17.4545 31.0434 16.8435 31.0434Z" fill="#141414"/>
</svg>
