<svg width="44" height="44" viewBox="0 0 44 44" fill="none" xmlns="http://www.w3.org/2000/svg">
<rect width="44" height="44" rx="22" fill="#D2AAEC"/>
<path d="M10.3027 15.0033C10.3027 14.3844 10.5486 13.7909 10.9862 13.3533C11.4237 12.9158 12.0172 12.6699 12.6361 12.6699H31.3027C31.9216 12.6699 32.5151 12.9158 32.9527 13.3533C33.3902 13.7909 33.6361 14.3844 33.6361 15.0033V29.0033C33.6361 29.6221 33.3902 30.2156 32.9527 30.6532C32.5151 31.0908 31.9216 31.3366 31.3027 31.3366H12.6361C12.0172 31.3366 11.4237 31.0908 10.9862 30.6532C10.5486 30.2156 10.3027 29.6221 10.3027 29.0033V15.0033Z" stroke="#141414" stroke-width="2.4" stroke-linecap="square" stroke-linejoin="bevel"/>
<path d="M10.3027 17.3359H33.6361" stroke="#141414" stroke-width="2.4" stroke-linecap="square" stroke-linejoin="bevel"/>
<path d="M10.3027 22.0029H18.4694C18.4694 23.1696 19.1694 25.5029 21.9694 25.5029C24.7694 25.5029 25.4694 23.1696 25.4694 22.0029H33.6361" stroke="#141414" stroke-width="2.4" stroke-linecap="square"/>
</svg>
