<svg width="22" height="22" viewBox="0 0 22 22" fill="none" xmlns="http://www.w3.org/2000/svg">
<path d="M8 0H1C0.447715 0 0 0.447715 0 1V8C0 8.55229 0.447715 9 1 9H8C8.55229 9 9 8.55229 9 8V1C9 0.447715 8.55229 0 8 0Z" fill="white"/>
<path d="M21 0H14C13.4477 0 13 0.447715 13 1V8C13 8.55229 13.4477 9 14 9H21C21.5523 9 22 8.55229 22 8V1C22 0.447715 21.5523 0 21 0Z" fill="white"/>
<path d="M8 13H1C0.447715 13 0 13.4477 0 14V21C0 21.5523 0.447715 22 1 22H8C8.55229 22 9 21.5523 9 21V14C9 13.4477 8.55229 13 8 13Z" fill="white"/>
<path d="M21 13H14C13.4477 13 13 13.4477 13 14V21C13 21.5523 13.4477 22 14 22H21C21.5523 22 22 21.5523 22 21V14C22 13.4477 21.5523 13 21 13Z" fill="white"/>
</svg>
